<svg xmlns="http://www.w3.org/2000/svg" width="684" height="628"><path fill-rule="evenodd" d="M534.588 284.964c-.47 24.753-1.527 43.102-16.391 57.182-14.397 13.637-36.153 14.048-54.699 14.048h-86.61c-18.546 0-39.683.398-54.079-13.239-.135-.128-7.567-5.539-12.331-18.107-3.08-8.127-5.217-19.797-5.217-35.958l-.009-131.759c.47-24.753 1.107-42.333 15.971-56.414 14.397-13.637 36.865-14.67 55.412-14.67h86.523c18.547 0 40.314.411 54.711 14.048 13.804 13.076 15.925 29.726 16.551 51.842.179 2.058.271 4.141.271 6.246v126.781h-.103zm-312.391 57.182c-14.397 13.637-36.153 14.048-54.699 14.048h-86.61c-18.546 0-39.683.398-54.079-13.239-.135-.128-7.567-5.539-12.331-18.107-3.08-8.127-5.217-19.797-5.217-35.958l-.009-131.759c.47-24.753 1.107-42.333 15.971-56.414 14.397-13.637 36.865-14.67 55.412-14.67h86.523c18.547 0 40.314.411 54.711 14.048 13.804 13.076 15.925 29.726 16.551 51.842.179 2.058.271 4.141.271 6.246v126.781h-.103c-.47 24.753-1.527 43.102-16.391 57.182z"/></svg>