<svg xmlns="http://www.w3.org/2000/svg" width="388" height="356"><path fill-rule="evenodd" d="M303.533 161.661c-.267 14.044-.785 24.615-9.219 32.604-8.168 7.737-20.758 7.81-31.28 7.81h-49.139c-10.523 0-22.836.225-31.004-7.512-.077-.072-3.972-3.143-6.675-10.273-1.748-4.611-2.877-11.232-2.877-20.401 0-8.014-.088-74.755-.088-74.755.267-14.044.462-24.101 8.896-32.09 8.168-7.737 21.081-8.324 31.604-8.324h49.256c10.523 0 22.875.314 31.043 8.051 7.832 7.419 9.033 16.868 9.388 29.416.102 1.168.154 75.474.154 75.474h-.059zm-177.219 32.604c-8.168 7.737-20.758 7.81-31.28 7.81H45.895c-10.523 0-22.836.225-31.004-7.512-.077-.072-3.972-3.143-6.675-10.273-1.748-4.611-2.877-11.232-2.877-20.401 0-8.014-.088-74.755-.088-74.755.267-14.044.462-24.101 8.896-32.09 8.168-7.737 21.081-8.324 31.604-8.324h49.256c10.523 0 22.875.314 31.043 8.051 7.832 7.419 9.033 16.868 9.388 29.416.102 1.168.154 75.474.154 75.474h-.059c-.267 14.044-.785 24.615-9.219 32.604z"/></svg>