<svg id="Layer_1" data-name="Layer 1" xmlns="http://www.w3.org/2000/svg" width="198" height="56" viewBox="0 0 198 56">
  <defs>
    <style>
      .cls-1 {
        fill: #333;
      }
    </style>
  </defs>
  <title>Vector Smart Object</title>
  <g>
    <path class="cls-1" d="M0.475,5.145A4.994,4.994,0,0,1,5.57.16a4.987,4.987,0,1,1,0,9.972A5.018,5.018,0,0,1,.475,5.145ZM1.057,15.19h9.062V54.966H1.057V15.19Z"/>
    <path class="cls-1" d="M65.883,28.728c0,16.7-9.608,27.112-24.892,27.112-15.322,0-24.929-10.408-24.929-27.112S25.669,1.579,40.99,1.579C56.275,1.579,65.883,12.024,65.883,28.728Zm-40.214,0c0,11.682,5.932,19.106,15.322,19.106,9.352,0,15.321-7.424,15.321-19.106,0-11.719-5.969-19.143-15.321-19.143C31.6,9.585,25.669,17.009,25.669,28.728Z"/>
    <path class="cls-1" d="M78.425,40.192c0.582,4.84,5.422,8.006,11.827,8.006,6.332,0,10.736-3.129,10.736-7.5,0-3.785-2.693-5.967-9.316-7.532l-6.806-1.6C75.185,29.346,70.6,24.688,70.6,17.191c0-9.316,8.115-15.612,19.542-15.612,11.573,0,19.216,6.26,19.433,15.5h-8.952c-0.437-4.913-4.549-7.861-10.553-7.861-5.932,0-9.935,2.911-9.935,7.279,0,3.493,2.656,5.532,9.1,7.059l6.041,1.384c10.663,2.437,15.175,6.841,15.175,14.667,0,9.97-8.006,16.23-20.707,16.23-12.082,0-20.016-5.969-20.416-15.648h9.1Z"/>
    <path class="cls-1" d="M145.708,7.729h-0.145c-0.837.51-9.935,7.1-14.084,9.68V12.1c1.565-.982,12.7-8.843,14.156-9.717h4.877V54.966h-4.8V7.729Z"/>
    <path class="cls-1" d="M159.5,28.691c0-16.485,7.169-27.076,19.033-27.076,11.9,0,19,10.553,19,27.039,0,16.6-7.059,27.149-19,27.149S159.5,45.287,159.5,28.691Zm33.044,0c0-13.793-5.205-22.672-14.011-22.672-8.771,0-14.011,8.953-14.011,22.636,0,13.938,5.132,22.783,14.011,22.783S192.54,42.592,192.54,28.691Z"/>
  </g>
</svg>
