<svg enable-background="new 0 0 822 151" height="151" viewBox="0 0 822 151" width="822" xmlns="http://www.w3.org/2000/svg"><path d="m0 0h822v151h-822z" fill="none"/><path d="m81.98 25.44c4.98-6.31 8.36-14.78 7.47-23.44-7.29.37-16.19 4.87-21.34 11.19-4.63 5.41-8.72 14.23-7.65 22.53 8.18.72 16.36-4.15 21.52-10.28m7.38 11.9c-11.89-.72-22 6.83-27.67 6.83-5.68 0-14.37-6.47-23.78-6.3-12.24.18-23.59 7.19-29.8 18.33-12.77 22.3-3.37 55.37 9.05 73.53 6.03 8.98 13.3 18.88 22.88 18.52 9.05-.36 12.6-5.93 23.6-5.93 10.99 0 14.19 5.93 23.77 5.76 9.94-.18 16.15-8.99 22.18-17.98 6.92-10.24 9.75-20.13 9.93-20.67-.18-.18-19.16-7.55-19.33-29.66-.18-18.51 14.9-27.32 15.61-27.87-8.52-12.76-21.83-14.2-26.44-14.56" fill="#fff"/></svg>