<svg enable-background="new 0 0 822 151" height="151" viewBox="0 0 822 151" width="822" xmlns="http://www.w3.org/2000/svg"><path d="m0 0h822v151h-822z" fill="none"/><path d="m532.53 118.25c-2.77 17.94-19.56 30.75-41.8 30.75-28.52 0-45.77-19.53-45.77-50.56 0-30.84 17.53-51.4 44.94-51.4 26.95 0 43.74 19.25 43.74 49.06v6.92h-68.56v1.21c0 17.1 10.15 28.41 26.11 28.41 11.35 0 19.75-5.79 22.42-14.39zm-67.37-29.34h48.54c-.46-15.04-9.87-25.61-23.81-25.61-13.93 0-23.71 10.75-24.73 25.61z" fill="#fff"/></svg>