<svg enable-background="new 0 0 822 151" height="151" viewBox="0 0 822 151" width="822" xmlns="http://www.w3.org/2000/svg"><path d="m0 0h822v151h-822z" fill="none"/><path d="m584.58 47.04c22.61 0 37.28 12.71 37.93 30.84h-18.73c-1.11-9.53-8.03-15.51-19.19-15.51-10.8 0-18 5.33-18 13.18 0 6.17 4.43 10.37 14.95 12.8l15.78 3.64c19.84 4.67 27.41 12.52 27.41 26.73 0 17.94-16.52 30.28-39.4 30.28-24.27 0-38.85-12.06-40.7-30.75h19.75c1.85 10.28 8.77 15.33 20.95 15.33 12 0 19.38-5.05 19.38-13.08 0-6.36-3.6-10.09-14.21-12.52l-15.78-3.74c-18.46-4.3-27.59-13.27-27.59-27.57-.02-17.57 15.12-29.63 37.45-29.63z" fill="#fff"/></svg>