<svg enable-background="new 0 0 617 617" height="617" viewBox="0 0 617 617" width="617" xmlns="http://www.w3.org/2000/svg"><path d="m0 0h617v617h-617z" fill="none"/><path d="m308.5 615c-169 0-306.5-137.5-306.5-306.5s137.5-306.5 306.5-306.5 306.5 137.5 306.5 306.5-137.5 306.5-306.5 306.5zm0-601.38c-162.6 0-294.88 132.28-294.88 294.88s132.28 294.88 294.88 294.88 294.88-132.28 294.88-294.88-132.28-294.88-294.88-294.88zm7.28 98.68v-46.08c0-4.03-3.26-7.28-7.28-7.28s-7.28 3.26-7.28 7.28v46.08c0 4.03 3.26 7.28 7.28 7.28s7.28-3.25 7.28-7.28zm0 448.59v-46.08c0-4.03-3.26-7.28-7.28-7.28s-7.28 3.26-7.28 7.28v46.08c0 4.03 3.26 7.28 7.28 7.28s7.28-3.25 7.28-7.28zm-201.25-247.34c0-4.03-3.26-7.28-7.28-7.28h-46.08c-4.02 0-7.28 3.26-7.28 7.28s3.26 7.28 7.28 7.28h46.08c4.02.01 7.28-3.25 7.28-7.28zm448.59 0c0-4.03-3.26-7.28-7.28-7.28h-46.08c-4.02 0-7.28 3.26-7.28 7.28s3.26 7.28 7.28 7.28h46.08c4.02.01 7.28-3.25 7.28-7.28zm-424.36 180.04 32.58-32.58c2.85-2.85 2.85-7.46 0-10.3-2.85-2.85-7.46-2.85-10.3 0l-32.58 32.58c-2.85 2.85-2.85 7.46 0 10.3 1.42 1.42 3.29 2.13 5.15 2.13s3.72-.7 5.15-2.13zm317.2-317.19 32.58-32.58c2.85-2.85 2.85-7.46 0-10.3-2.85-2.85-7.46-2.85-10.3 0l-32.58 32.58c-2.85 2.85-2.85 7.46 0 10.3 1.42 1.42 3.29 2.13 5.15 2.13s3.73-.71 5.15-2.13zm32.58 317.19c2.85-2.85 2.85-7.46 0-10.3l-32.58-32.58c-2.85-2.85-7.46-2.85-10.3 0-2.85 2.85-2.85 7.46 0 10.3l32.58 32.58c1.42 1.42 3.29 2.13 5.15 2.13s3.73-.7 5.15-2.13zm-317.2-317.19c2.85-2.85 2.85-7.46 0-10.3l-32.58-32.58c-2.85-2.85-7.46-2.85-10.3 0-2.85 2.85-2.85 7.46 0 10.3l32.58 32.58c1.42 1.42 3.29 2.13 5.15 2.13 1.87 0 3.73-.71 5.15-2.13zm233.91 372.67c3.72-1.53 5.5-5.78 3.97-9.5l-9.1-22.16c-1.53-3.72-5.79-5.48-9.5-3.97-3.72 1.53-5.5 5.78-3.97 9.5l9.1 22.16c1.16 2.82 3.87 4.52 6.74 4.52.91 0 1.85-.18 2.76-.55zm-178.84-435.34c3.72-1.53 5.5-5.78 3.97-9.5l-9.12-22.23c-1.53-3.73-5.79-5.48-9.5-3.97-3.72 1.53-5.5 5.78-3.97 9.5l9.13 22.22c1.16 2.82 3.87 4.52 6.74 4.52.91 0 1.85-.18 2.75-.54zm-143.2 302.15 22.1-9.26c3.71-1.55 5.46-5.82 3.9-9.53s-5.82-5.48-9.54-3.9l-22.1 9.26c-3.71 1.55-5.46 5.82-3.9 9.53 1.17 2.79 3.87 4.47 6.72 4.47.94-.01 1.89-.18 2.82-.57zm434.06-181.93 22.15-9.28c3.71-1.55 5.46-5.82 3.9-9.53s-5.82-5.47-9.54-3.9l-22.15 9.28c-3.71 1.55-5.46 5.82-3.9 9.53 1.17 2.79 3.87 4.47 6.72 4.47.95 0 1.9-.18 2.82-.57zm26.06 178.03c1.55-3.71-.19-7.98-3.9-9.53l-22.1-9.26c-3.72-1.58-7.98.18-9.54 3.9-1.55 3.71.19 7.98 3.9 9.53l22.1 9.26c.92.39 1.87.57 2.81.57 2.85-.01 5.56-1.68 6.73-4.47zm-434.07-181.93c1.55-3.71-.19-7.98-3.9-9.53l-22.15-9.28c-3.72-1.57-7.98.18-9.54 3.9-1.55 3.71.19 7.98 3.9 9.53l22.15 9.28c.92.39 1.87.57 2.81.57 2.86 0 5.56-1.68 6.73-4.47zm112 315.05 9.11-22.16c1.53-3.72-.25-7.97-3.97-9.5-3.71-1.52-7.97.25-9.5 3.97l-9.11 22.16c-1.53 3.72.25 7.97 3.97 9.5.9.37 1.84.55 2.76.55 2.86 0 5.58-1.7 6.74-4.52zm178.83-435.34 9.13-22.22c1.53-3.72-.25-7.97-3.97-9.5-3.72-1.52-7.98.24-9.5 3.97l-9.13 22.22c-1.53 3.72.25 7.97 3.97 9.5.9.37 1.84.55 2.76.55 2.87-.01 5.58-1.71 6.74-4.52z" fill="#fff"/></svg>