<svg enable-background="new 0 0 368 107" height="107" viewBox="0 0 368 107" width="368" xmlns="http://www.w3.org/2000/svg"><path d="m0 0h368v107h-368z" fill="none"/><path d="m53.5 2h260.4c28.44 0 51.5 23.06 51.5 51.5s-23.06 51.5-51.5 51.5h-260.4c-28.44 0-51.5-23.06-51.5-51.5s23.06-51.5 51.5-51.5z" fill="#a6ff00"/><path clip-rule="evenodd" d="m122.02 62.73c4.46 0 7.73-2.64 8.19-6.55h-3.4c-.47 2.17-2.33 3.55-4.78 3.55-3.3 0-5.35-2.75-5.35-7.15 0-4.39 2.05-7.14 5.33-7.14 2.44 0 4.3 1.51 4.78 3.84h3.4c-.4-4.01-3.79-6.85-8.19-6.85-5.48 0-8.87 3.87-8.87 10.15.01 6.27 3.41 10.15 8.89 10.15zm11.94-.48h3.32v-8.51c0-2.14 1.22-3.58 3.4-3.58 1.93 0 2.95 1.15 2.95 3.42v8.67h3.32v-9.45c0-3.48-1.9-5.47-5.04-5.47-2.18 0-3.75.99-4.45 2.64h-.24v-8.04h-3.27zm18.76-17.1c1.09-.01 1.96-.89 1.96-1.98-.01-1.09-.89-1.96-1.98-1.96-1.08.01-1.96.89-1.96 1.97.01 1.1.89 1.98 1.98 1.97zm-1.64 17.1h3.31v-14.64h-3.31zm7.69 0h3.32v-20.31h-3.32zm7.79 0h3.32v-20.31h-3.32zm24.75 0 6.69-19.33h-3.69l-4.82 15.38h-.23l-4.86-15.38h-3.82l6.75 19.33zm11.5-17.1c1.09-.01 1.96-.89 1.96-1.98-.01-1.09-.89-1.96-1.98-1.96-1.08.01-1.96.89-1.96 1.97 0 1.1.89 1.98 1.98 1.97zm-1.65 17.1h3.31v-14.64h-3.31zm15.71.24c3.7 0 6.02-2.91 6.02-7.56 0-4.68-2.3-7.57-6.02-7.57-2.01 0-3.7.98-4.46 2.57h-.23v-8h-3.32v20.31h3.2v-2.32h.23c.83 1.62 2.53 2.57 4.58 2.57zm-1.05-12.35c2.26 0 3.64 1.81 3.64 4.8s-1.37 4.8-3.64 4.8-3.7-1.84-3.7-4.8 1.44-4.8 3.7-4.8zm20.09 8.1c-.48 1.1-1.62 1.71-3.27 1.71-2.18 0-3.59-1.55-3.67-4.03v-.17h10.24v-1.06c0-4.6-2.51-7.37-6.69-7.37-4.25 0-6.89 2.96-6.89 7.66 0 4.69 2.6 7.56 6.91 7.56 3.46 0 5.91-1.66 6.51-4.3zm-3.4-8.33c2 0 3.31 1.41 3.38 3.63h-6.9c.14-2.2 1.53-3.63 3.52-3.63zm9.84 1.88c0 2.2 1.33 3.48 4.14 4.13l2.6.6c1.4.32 2.02.86 2.02 1.69 0 1.11-1.17 1.88-2.84 1.88-1.66 0-2.69-.67-3.01-1.76h-3.28c.25 2.64 2.56 4.22 6.22 4.22s6.24-1.86 6.24-4.66c0-2.16-1.3-3.35-4.1-3.99l-2.59-.58c-1.47-.35-2.17-.87-2.17-1.7 0-1.09 1.14-1.82 2.65-1.82 1.55 0 2.53.67 2.77 1.7h3.12c-.24-2.64-2.43-4.17-5.91-4.17-3.45 0-5.86 1.83-5.86 4.46z" fill-rule="evenodd"/></svg>