<svg enable-background="new 0 0 493 107" height="107" viewBox="0 0 493 107" width="493" xmlns="http://www.w3.org/2000/svg"><path d="m0 0h493v107h-493z" fill="none"/><path d="m53.5 2h385.89c28.44 0 51.5 23.06 51.5 51.5s-23.06 51.5-51.5 51.5h-385.89c-28.44 0-51.5-23.06-51.5-51.5s23.06-51.5 51.5-51.5z" fill="#a6ff00"/><path clip-rule="evenodd" d="m127.98 64.37v-8.29l7.37-12.73h-4.12l-5 9.02h-.25l-5.01-9.02h-4.12l7.37 12.73v8.29zm14.94.32c4.77 0 7.66-3.12 7.66-8.29 0-5.14-2.91-8.26-7.66-8.26-4.74 0-7.66 3.13-7.66 8.26 0 5.17 2.88 8.29 7.66 8.29zm0-2.96c-2.52 0-3.96-1.95-3.96-5.32s1.44-5.32 3.96-5.32c2.51 0 3.95 1.95 3.95 5.32s-1.43 5.32-3.95 5.32zm18.31 8.7c4.65 0 7.59-2.32 7.59-5.97v-16.01h-3.48v2.55h-.25c-.87-1.73-2.77-2.81-4.94-2.81-4.07 0-6.59 3.18-6.59 8.06 0 4.78 2.51 7.89 6.53 7.89 2.21 0 3.95-.93 4.87-2.65h.25v3.03c0 2.02-1.44 3.22-3.92 3.22-1.98 0-3.26-.71-3.5-1.84h-3.63c.29 2.74 2.98 4.53 7.07 4.53zm0-9.17c-2.52 0-3.95-1.95-3.95-5.04 0-3.07 1.43-5.03 3.95-5.03 2.51 0 4.04 1.95 4.04 5.04 0 3.08-1.52 5.03-4.04 5.03zm16.56 3.37c2.08 0 3.83-.9 4.72-2.45h.25v2.19h3.48v-10.88c0-3.36-2.3-5.35-6.4-5.35-3.79 0-6.43 1.78-6.72 4.56h3.41c.34-1.09 1.47-1.69 3.13-1.69 1.95 0 3 .89 3 2.48v1.37l-4.11.25c-3.88.22-6.05 1.89-6.05 4.75.01 2.9 2.21 4.77 5.29 4.77zm1.06-2.78c-1.6 0-2.75-.8-2.75-2.17 0-1.33.95-2.07 2.97-2.2l3.6-.25v1.3c0 1.89-1.63 3.32-3.82 3.32z" fill-rule="evenodd"/><path d="m53.5 10.22c23.9 0 43.28 19.38 43.28 43.28s-19.38 43.28-43.28 43.28-43.28-19.38-43.28-43.28 19.38-43.28 43.28-43.28z"/><path clip-rule="evenodd" d="m53.5 32.56c0 2.72 2.21 4.93 4.93 4.93s4.93-2.21 4.93-4.93-2.21-4.93-4.93-4.93c-2.73 0-4.93 2.21-4.93 4.93zm24.18 12.44-40.65-13.55c-1.29-.44-2.69.24-3.13 1.53s.24 2.69 1.53 3.13c.01 0 .03.01.04.01l16.08 5.36c-1.38 2.85-3.82 4.62-6.67 4.62h-12.33v-12.31c-.01-1.36-1.13-2.45-2.49-2.44-1.34.01-2.43 1.1-2.44 2.44v14.78.05c0 .09.01.18.03.27.01.07.01.15.03.22.02.08.04.16.07.24.02.07.05.15.08.22s.07.13.11.2l.12.21c.05.07.1.12.15.18s.1.12.16.18.12.1.18.15.12.1.19.15.13.07.2.11.15.08.23.11c.06.03.13.04.2.06.09.03.18.05.27.07.01 0 .03.01.04.01l10.94 1.82 1.79 10.73v13.35c.01 1.36 1.13 2.45 2.49 2.44 1.34-.01 2.43-1.1 2.44-2.44v-22.37c5.76-.9 10.71-4.86 12.75-10.2l16.04 5.35c1.29.43 2.69-.27 3.12-1.56s-.27-2.69-1.57-3.12z" fill="#a6ff00" fill-rule="evenodd"/></svg>