<svg enable-background="new 0 0 107 107" height="107" viewBox="0 0 107 107" width="107" xmlns="http://www.w3.org/2000/svg"><path clip-rule="evenodd" d="m0 0h107v107h-107z" fill="none"/><circle cx="53.5" cy="53.5" fill="#a6ff00" r="51.5"/><g clip-rule="evenodd" fill-rule="evenodd"><path d="m35.75 10.68c.88-.36 1.88.05 2.24.93l.66 1.59c.37.87-.03 1.88-.91 2.25-.87.37-1.88-.03-2.25-.91 0-.01-.01-.02-.01-.03l-.66-1.59c-.37-.87.05-1.87.93-2.24zm33.53 80.88c.88-.36 1.88.05 2.24.93l.66 1.59c.36.88-.05 1.88-.93 2.24s-1.88-.05-2.24-.93l-.66-1.59c-.36-.87.06-1.88.93-2.24zm27-55.88c.36.88-.05 1.88-.93 2.25l-1.58.66c-.88.36-1.89-.07-2.24-.95-.35-.87.06-1.87.93-2.23l1.58-.66c.88-.37 1.88.05 2.24.93 0-.01 0-.01 0 0zm-80.81 33.66c.36.88-.05 1.88-.93 2.25l-1.58.66c-.88.36-1.89-.06-2.25-.94s.06-1.89.94-2.25l1.58-.66c.87-.35 1.87.06 2.24.94zm55.75-58.67c.88.36 1.29 1.37.93 2.24l-.66 1.59c-.36.88-1.37 1.29-2.24.93s-1.29-1.37-.93-2.24l.66-1.59c.36-.87 1.37-1.29 2.24-.93zm-33.47 80.9c.88.36 1.29 1.37.93 2.24l-.66 1.59c-.36.88-1.37 1.29-2.24.93-.88-.36-1.29-1.37-.93-2.24l.66-1.59c.36-.88 1.36-1.29 2.24-.93zm58.61-20.42c-.36.88-1.37 1.3-2.25.94l-1.59-.65c-.88-.37-1.28-1.38-.91-2.26.37-.86 1.36-1.27 2.23-.92l1.59.65c.87.35 1.29 1.36.93 2.24 0-.01 0 0 0 0zm-80.95-33.34c-.36.88-1.37 1.3-2.25.94l-1.59-.65c-.88-.37-1.28-1.38-.91-2.26.37-.86 1.36-1.27 2.23-.92l1.59.65c.87.36 1.29 1.36.93 2.24zm38.09 51.74c1.14 0 2.06.92 2.06 2.06v6.18c0 1.14-.92 2.06-2.06 2.06s-2.06-.92-2.06-2.06v-6.18c0-1.14.92-2.06 2.06-2.06zm0-82.4c1.14 0 2.06.92 2.06 2.06v6.18c0 1.14-.92 2.06-2.06 2.06s-2.06-.92-2.06-2.06v-6.18c0-1.14.92-2.06 2.06-2.06zm-44.29 44.29h6.18c1.14 0 2.06.92 2.06 2.06s-.92 2.06-2.06 2.06h-6.18c-1.14 0-2.06-.92-2.06-2.06s.92-2.06 2.06-2.06zm82.4 0h6.18c1.14 0 2.06.92 2.06 2.06s-.92 2.06-2.06 2.06h-6.18c-1.14 0-2.06-.92-2.06-2.06s.92-2.06 2.06-2.06zm-63.6 27.55c.8.8.8 2.11 0 2.91l-4.37 4.37c-.81.8-2.11.8-2.91-.01-.8-.8-.8-2.1 0-2.91l4.37-4.37c.8-.79 2.1-.79 2.91.01zm58.26-58.26c.8.8.8 2.11 0 2.91l-4.37 4.37c-.81.8-2.11.8-2.91-.01-.8-.8-.8-2.1 0-2.91l4.37-4.37c.81-.8 2.11-.8 2.91.01zm-62.63 0 4.37 4.37c.8.81.79 2.12-.02 2.91-.8.79-2.09.79-2.89 0l-4.37-4.37c-.8-.81-.79-2.12.02-2.91.8-.79 2.09-.79 2.89 0zm58.26 58.26 4.37 4.37c.8.8.8 2.11 0 2.91s-2.11.8-2.91 0l-4.37-4.37c-.8-.8-.8-2.11 0-2.91s2.11-.8 2.91 0z"/><path d="m50.77 72.68v-9.68h-2.03l-2.91 7.18h-.12l-2.91-7.18h-2.03v9.68h1.61v-6.86h.09l2.68 6.56h1.23l2.68-6.56h.09v6.86zm4.19 0v-9.68h-1.73v9.68zm4.12 0v-6.67h.11l4.75 6.67h1.5v-9.68h-1.66v6.67h-.11l-4.75-6.67h-1.5v9.68zm-15.59-24.03h2.12c2.09 0 3.36 1.04 3.36 2.75 0 1.64-1.37 2.75-3.32 2.75-1.96 0-3.29-1.01-3.41-2.58h-2.9c.14 3.06 2.66 5.07 6.35 5.07 3.66 0 6.38-2.11 6.38-5.02 0-2.31-1.44-3.8-3.74-4.15v-.2c1.8-.48 3.07-1.83 3.09-3.87.01-2.43-2.02-4.53-5.62-4.53-3.67 0-5.97 2.08-6.13 5.05h2.84c.13-1.69 1.28-2.63 3.12-2.63 1.8 0 2.86 1.1 2.86 2.5 0 1.54-1.2 2.62-2.93 2.62h-2.07zm17.97 7.98c4.05 0 6.45-3.27 6.45-8.88 0-5.62-2.44-8.9-6.45-8.9-4.03 0-6.47 3.27-6.47 8.87 0 5.62 2.4 8.91 6.47 8.91zm0-2.46c-2.15 0-3.4-2.23-3.4-6.45 0-4.19 1.28-6.41 3.4-6.41s3.39 2.21 3.39 6.41c0 4.24-1.25 6.45-3.39 6.45z"/></g></svg>