<svg version="1.1" id="Product_Red" width="72px" height="16px" viewBox="0 0 72 16" x="0px" y="0px" baseProfile="full" xmlns="http://www.w3.org/2000/svg" xmlns:xlink="http://www.w3.org/1999/xlink" xmlns:ev="http://www.w3.org/2001/xml-events">
	<path fill="#AF1E2D" d="M5.6,13V2.3h2.6c2.3,0,3.3,0.9,3.3,3.2s-1.1,3.2-3.3,3.2H7.4V13L5.6,13L5.6,13z M7.4,7.1h0.7c1.2,0,1.6-0.4,1.6-1.7c0-1.3-0.4-1.7-1.6-1.7H7.4V7.1L7.4,7.1L7.4,7.1z M14.8,13H13V2.3h2.6c2.1,0,3.1,0.9,3.1,3.2c0,1.7-0.7,2.4-1.3,2.7L19,13h-1.9l-1.3-4.4c-0.2,0-0.6,0-1,0V13L14.8,13z M14.8,7.1h0.6c1,0,1.4-0.4,1.4-1.7c0-1.3-0.4-1.7-1.4-1.7h-0.6V7.1z M20.4,4.9c0-1.5,0.9-2.7,2.8-2.7S26,3.3,26,4.9v5.5c0,1.5-0.9,2.7-2.8,2.7s-2.8-1.2-2.8-2.7V4.9z M22.2,10.3c0,0.8,0.2,1.2,1,1.2s1-0.4,1-1.2V4.9c0-0.8-0.2-1.2-1-1.2s-1,0.4-1,1.2V10.3z M27.8,2.3h2.7c1.9,0,2.9,1,2.9,3.2v4.2c0,2.2-1,3.2-2.9,3.2h-2.7C27.8,13,27.8,2.3,27.8,2.3z M29.6,11.5h0.6c1,0,1.3-0.4,1.3-1.5V5.3c0-1.1-0.3-1.5-1.3-1.5h-0.6V11.5zM35.2,2.3v8c0,1.8,1.1,2.8,2.8,2.8s2.8-1,2.8-2.8v-8H39v8.1c0,0.8-0.3,1.2-1,1.2c-0.7,0-1-0.4-1-1.2V2.3H35.2L35.2,2.3z M46.3,5.8h1.8V5c0-1.6-0.9-2.9-2.7-2.9c-1.9,0-2.8,1.2-2.8,2.7v5.5c0,1.5,0.9,2.7,2.8,2.7c1.8,0,2.7-1.2,2.7-2.7V9.1h-1.8v1.3c0,0.7-0.2,1.1-0.9,1.1c-0.7,0-1-0.4-1-1.2V4.9c0-0.8,0.2-1.2,1-1.2c0.5,0,0.9,0.4,0.9,1.3V5.8L46.3,5.8z M51.1,3.9V13h1.8V3.9h1.8V2.3h-5.4v1.6H51.1L51.1,3.9z M2.8,14.2h1.4c0,0-0.7-1.1-1-1.8c-0.6-1.3-0.8-2.8-0.8-4.2S2.7,5.3,3.2,4c0.3-0.7,0.6-1.3,1-1.9c-0.2,0-1.4,0-1.4,0C1.8,3.6,1,5.5,1,8.2S2.1,13.1,2.8,14.2z M58.6,8.2c0-2.7-0.8-4.6-1.8-6.1c0,0-1.2,0-1.4,0c0.4,0.6,0.7,1.2,1,1.9c0.5,1.3,0.8,2.7,0.8,4.2c0,1.5-0.3,2.9-0.8,4.2c-0.3,0.7-1,1.8-1,1.8h1.4C57.5,13.1,58.6,10.8,58.6,8.2zM60.6,8h-1.1V1.8h1.5c1.2,0,1.8,0.5,1.8,1.8c0,1-0.4,1.4-0.8,1.6L63,8h-1.1l-0.8-2.6c-0.1,0-0.4,0-0.6,0V8L60.6,8z M60.6,4.6H61c0.6,0,0.8-0.2,0.8-1c0-0.7-0.2-1-0.8-1h-0.4V4.6z M63.9,8h3V7.1h-1.9V5.3h1.4V4.3h-1.4V2.7h1.8V1.8h-2.9V8L63.9,8z M67.7,1.8h1.6c1.1,0,1.7,0.6,1.7,1.9v2.5C71,7.4,70.4,8,69.3,8h-1.6V1.8L67.7,1.8z M68.8,7.1h0.4c0.6,0,0.8-0.2,0.8-0.9V3.5c0-0.7-0.2-0.9-0.8-0.9h-0.4V7.1z"/>
</svg>
