<svg version="1.1" id="Layer_1" xmlns="http://www.w3.org/2000/svg" xmlns:xlink="http://www.w3.org/1999/xlink" x="0px" y="0px"
	 viewBox="0 0 1682.83 399.99" enable-background="new 0 0 1682.83 399.99" xml:space="preserve">
<g>
	<path d="M0,39.81C0,16.88,18.46,0,41.13,0s41.13,16.88,41.13,39.81c0,22.41-18.46,39.81-41.13,39.81S0,62.23,0,39.81z M2.64,110.74
		h76.99V393.4H2.64V110.74z"/>
	<path d="M265.69,12.92c78.05,0,131.84,51.94,131.84,130.25c0,78.05-55.63,130.25-135.79,130.25h-71.19V393.4h-79.63V12.92H265.69z
		 M190.54,211.2h53.79c45.62,0,72.25-24.26,72.25-67.76c0-43.24-26.37-67.5-71.98-67.5h-54.05V211.2z"/>
	<path d="M393.32,311.92c0-51.42,39.55-80.68,112.06-84.9l69.87-4.22v-18.46c0-26.63-18.46-41.13-48.52-41.13
		c-26.63,0-45.62,13.97-49.04,34.28h-70.14c2.11-54.58,50.89-91.76,122.61-91.76c72.77,0,120.76,37.44,120.76,93.87v193.8h-74.36
		v-43.24h-1.58c-15.56,29.53-50.36,47.46-86.22,47.46C434.46,397.62,393.32,362.55,393.32,311.92z M575.26,289.78v-20.3l-58.27,3.69
		c-30.59,2.11-46.93,14.5-46.93,34.54c0,20.57,17.4,34.01,44.03,34.01C548.1,341.72,575.26,320.1,575.26,289.78z"/>
	<path d="M668.62,251.54c0-88.59,45.35-144.23,115.75-144.23c40.87,0,72.25,20.57,86.22,51.94h1.58V12.92h76.99V393.4h-75.94v-48.52
		h-1.32c-13.71,31.11-46.41,51.94-88.07,51.94C713.71,396.83,668.62,340.93,668.62,251.54z M747.46,252.07
		c0,50.89,24.26,82.79,62.49,82.79s62.75-32.17,62.75-82.79c0-50.36-24.52-82.79-62.75-82.79S747.46,201.45,747.46,252.07z"/>
	<path d="M1372.47,203.29c0,121.03-70.93,196.7-183.52,196.7c-112.85,0-183.52-75.67-183.52-196.7
		c0-121.29,70.66-196.96,183.52-196.96C1301.54,6.33,1372.47,82,1372.47,203.29z M1086.65,203.29c0,79.63,39.81,129.99,102.3,129.99
		c62.23,0,102.04-50.36,102.04-129.99c0-79.89-39.81-130.52-102.04-130.52S1086.65,123.4,1086.65,203.29z"/>
	<path d="M1453.17,285.03c3.69,31.38,36.39,51.94,78.57,51.94c42.45,0,71.46-20.3,71.46-48.25c0-24.79-18.19-38.5-64.07-48.78
		l-49.57-10.81c-70.14-15.03-104.68-50.62-104.68-106.26c0-70.14,60.64-116.54,145.55-116.54c88.59,0,144.23,45.62,145.55,114.43
		h-74.62c-2.64-32.17-30.85-51.68-70.66-51.68c-39.29,0-65.65,18.72-65.65,46.93c0,23.47,18.46,36.65,62.23,46.67l46.14,9.76
		c76.2,16.35,109.42,49.04,109.42,107.05c0,73.83-59.85,120.5-154.25,120.5c-91.49,0-149.77-43.51-152.14-114.96H1453.17z"/>
</g>
</svg>
