<?xml version="1.0" encoding="utf-8"?>
<!-- Generator: Adobe Illustrator 16.0.4, SVG Export Plug-In . SVG Version: 6.00 Build 0)  -->
<!DOCTYPE svg PUBLIC "-//W3C//DTD SVG 1.1//EN" "http://www.w3.org/Graphics/SVG/1.1/DTD/svg11.dtd">
<svg version="1.1" id="Layer_1" xmlns="http://www.w3.org/2000/svg" xmlns:xlink="http://www.w3.org/1999/xlink" x="0px" y="0px"
	 width="82px" height="82px" viewBox="0 0 82 82" enable-background="new 0 0 82 82" xml:space="preserve">
<g>
	<linearGradient id="SVGID_1_" gradientUnits="userSpaceOnUse" x1="41" y1="80.959" x2="41" y2="1.0415">
		<stop  offset="0" style="stop-color:#7E8285"/>
		<stop  offset="1" style="stop-color:#8C9194"/>
	</linearGradient>
	<path fill="url(#SVGID_1_)" d="M41,1.041c-22.067,0-39.958,17.891-39.958,39.958c0,22.069,17.891,39.96,39.958,39.96
		c22.069,0,39.958-17.891,39.958-39.96C80.958,18.932,63.069,1.041,41,1.041z M41,78.509c-20.682,0-37.508-16.827-37.508-37.51
		C3.492,20.317,20.318,3.491,41,3.491s37.508,16.826,37.508,37.508C78.508,61.682,61.682,78.509,41,78.509z"/>
	<linearGradient id="SVGID_2_" gradientUnits="userSpaceOnUse" x1="40.999" y1="51.7637" x2="40.999" y2="43.7979">
		<stop  offset="0" style="stop-color:#7E8285"/>
		<stop  offset="1" style="stop-color:#8C9194"/>
	</linearGradient>
	<path fill="url(#SVGID_2_)" d="M40.942,43.798c-4.59,0-8.742,1.877-11.732,4.902c1.551,1.665,1.455,1.55,3.023,3.063
		c2.213-2.259,5.297-3.66,8.709-3.66h0.113c3.412,0,6.498,1.401,8.711,3.66c1.566-1.514,1.471-1.398,3.021-3.063
		c-2.99-3.025-7.141-4.902-11.732-4.902H40.942z"/>
	<linearGradient id="SVGID_3_" gradientUnits="userSpaceOnUse" x1="40.9971" y1="61.0986" x2="40.9971" y2="53.3711">
		<stop  offset="0" style="stop-color:#7E8285"/>
		<stop  offset="1" style="stop-color:#8C9194"/>
	</linearGradient>
	<path fill="url(#SVGID_3_)" d="M35.597,55.619c2.896,2.975,5.389,5.479,5.389,5.479s3.051-3.014,5.412-5.365
		c-1.365-1.455-3.303-2.362-5.455-2.362C38.849,53.371,36.954,54.231,35.597,55.619z"/>
	<linearGradient id="SVGID_4_" gradientUnits="userSpaceOnUse" x1="40.999" y1="44.5791" x2="40.999" y2="33.5459">
		<stop  offset="0" style="stop-color:#7E8285"/>
		<stop  offset="1" style="stop-color:#8C9194"/>
	</linearGradient>
	<path fill="url(#SVGID_4_)" d="M40.942,33.545c-7.268,0-13.844,2.959-18.59,7.739c1.145,1.21,1.693,1.797,3.246,3.294
		c3.912-3.955,9.342-6.408,15.344-6.408h0.113c6.002,0,11.432,2.453,15.344,6.408c1.553-1.497,2.104-2.084,3.246-3.294
		c-4.746-4.78-11.322-7.739-18.59-7.739H40.942z"/>
	<linearGradient id="SVGID_5_" gradientUnits="userSpaceOnUse" x1="41" y1="37.2095" x2="41" y2="23.6138">
		<stop  offset="0" style="stop-color:#7E8285"/>
		<stop  offset="1" style="stop-color:#8C9194"/>
	</linearGradient>
	<path fill="url(#SVGID_5_)" d="M40.942,23.614c-9.844,0-18.75,3.997-25.191,10.456c1.383,1.551,1.562,1.717,3.084,3.14
		c5.646-5.68,13.469-9.195,22.107-9.195h0.113c8.641,0,16.461,3.515,22.107,9.195c1.521-1.423,1.701-1.589,3.086-3.14
		c-6.441-6.458-15.35-10.456-25.193-10.456H40.942z"/>
</g>
</svg>
