<svg id="Layer_1" data-name="Layer 1" xmlns="http://www.w3.org/2000/svg" width="50" height="60" viewBox="0 0 50 60">
  <title>Glory-Preview-LMS-Rolling-Mile-Words-04-kiley</title>
  <g>
    <path d="M17.156,16.559c0,1.055-.551,1.5-1.289,1.5s-1.254-.445-1.254-1.5V7.031h-.141l-3.422,7.828c-.34.75-.68,1.395-1.547,1.395-.891,0-1.23-.633-1.57-1.395L4.512,7.031H4.359v9.527c0,1.055-.539,1.5-1.277,1.5s-1.266-.445-1.266-1.5V3.809A1.632,1.632,0,0,1,3.492,1.945c1.008,0,1.441.609,1.91,1.688l4.043,9.375h.105l4.031-9.387c.492-1.113.938-1.676,1.922-1.676,1.1,0,1.652.727,1.652,1.863Z"/>
    <path d="M20.707,16.523V3.48a1.422,1.422,0,1,1,2.836,0V16.523a1.339,1.339,0,0,1-1.406,1.535A1.36,1.36,0,0,1,20.707,16.523Z"/>
    <path d="M29.121,18c-1.312,0-2.051-.527-2.051-1.945V3.48a1.422,1.422,0,1,1,2.836,0V15.563H35.73a1.221,1.221,0,1,1,0,2.438Z"/>
    <path d="M38.941,3.949C38.941,2.543,39.68,2,40.992,2h7A1.142,1.142,0,0,1,49.23,3.188a1.142,1.142,0,0,1-1.242,1.184H41.766V8.766h5.871a1.121,1.121,0,1,1,0,2.238H41.766v4.629h6.2A1.187,1.187,0,1,1,47.953,18H40.992c-1.312,0-2.051-.527-2.051-1.945Z"/>
    <path d="M.586,40.84a3.648,3.648,0,0,1,.246-1.1L4.992,27.9c.434-1.242.949-1.957,2.25-1.957,1.336,0,1.875.75,2.285,1.957l4.137,11.813a3.661,3.661,0,0,1,.223,1.09,1.226,1.226,0,0,1-1.348,1.254c-.668,0-1.172-.375-1.477-1.371l-1.008-3H4.336l-.984,2.965c-.293.938-.68,1.406-1.441,1.406A1.211,1.211,0,0,1,.586,40.84ZM9.4,35.531,7.266,28.875H7.137L4.992,35.531Z"/>
    <path d="M24.422,27.363c.328-1.09.809-1.418,1.488-1.418a1.305,1.305,0,0,1,1.406,1.266,3.462,3.462,0,0,1-.2,1.066L22.945,40.1c-.4,1.2-.961,1.957-2.25,1.957S18.8,41.3,18.4,40.1L14.262,28.383a3.7,3.7,0,0,1-.234-1.125,1.334,1.334,0,0,1,1.418-1.312c.68,0,1.184.352,1.5,1.406L20.637,38.73h.141Z"/>
    <path d="M28.664,32.8c0-4.582,2.684-7.113,6.586-7.113a7.068,7.068,0,0,1,4.406,1.43,3.794,3.794,0,0,1,1.617,2.707,1.168,1.168,0,0,1-1.242,1.242c-.621,0-.949-.34-1.324-.867a3.841,3.841,0,0,0-3.387-1.992c-2.355,0-3.785,1.582-3.785,4.688v2.25c0,3.012,1.453,4.758,3.949,4.758,2.2,0,3.41-1.348,3.41-3.07v-1.16H36.445c-.867,0-1.289-.457-1.289-1.113s.422-1.09,1.289-1.09h3.34c1.324,0,1.816.609,1.816,1.77v1.453c0,2.379-1.559,5.625-6.211,5.625-4.184,0-6.727-2.637-6.727-7.148Z"/>
    <path d="M45.762,38.883a1.682,1.682,0,1,1-1.687,1.688A1.693,1.693,0,0,1,45.762,38.883Z"/>
  </g>
</svg>
