<svg id="Layer_1" data-name="Layer 1" xmlns="http://www.w3.org/2000/svg" width="94" height="60" viewBox="0 0 94 60">
  <title>Glory-Preview-LMS-Rolling-Mile-Words-04-kiley</title>
  <g>
    <path d="M12.035,18.059c-.6,0-1.055-.2-1.664-1.242l-2.66-4.9H4.57v4.594a1.354,1.354,0,0,1-1.406,1.547,1.339,1.339,0,0,1-1.406-1.535V4.23C1.758,2.648,2.473,2,4.02,2h4C11.742,2,13.43,4.23,13.43,6.867a4.479,4.479,0,0,1-2.953,4.441l2.543,4.477a1.918,1.918,0,0,1,.328,1.066A1.205,1.205,0,0,1,12.035,18.059ZM7.582,9.738c1.922,0,3-.973,3-2.707,0-1.828-1.207-2.742-2.953-2.742H4.57V9.738Z"/>
    <path d="M15.727,9c0-4.547,2.578-7.312,6.727-7.312s6.7,2.766,6.7,7.313v2.133c0,4.523-2.578,7.184-6.738,7.184s-6.691-2.66-6.691-7.184Zm2.859,2.133c0,3.234,1.629,4.77,3.855,4.77s3.844-1.535,3.844-4.77V8.988c0-3.234-1.629-4.887-3.844-4.887s-3.855,1.652-3.855,4.887Z"/>
    <path d="M34.1,18c-1.312,0-2.051-.527-2.051-1.945V3.48a1.422,1.422,0,1,1,2.836,0V15.563h5.824a1.221,1.221,0,1,1,0,2.438Z"/>
    <path d="M45.973,18c-1.312,0-2.051-.527-2.051-1.945V3.48a1.422,1.422,0,1,1,2.836,0V15.563h5.824a1.221,1.221,0,1,1,0,2.438Z"/>
    <path d="M55.758,16.523V3.48a1.422,1.422,0,1,1,2.836,0V16.523a1.339,1.339,0,0,1-1.406,1.535A1.36,1.36,0,0,1,55.758,16.523Z"/>
    <path d="M73.23,18.023c-.762,0-1.16-.375-1.816-1.348l-6.469-9.9h-.117v9.785a1.361,1.361,0,1,1-2.707,0V3.727c0-1.09.492-1.746,1.523-1.746.738,0,1.113.352,1.781,1.336L71.883,13.2h.129V3.445c0-1.055.6-1.5,1.336-1.5a1.316,1.316,0,0,1,1.359,1.5V16.336C74.707,17.508,74.121,18.023,73.23,18.023Z"/>
    <path d="M77.6,8.8c0-4.582,2.684-7.113,6.586-7.113a7.068,7.068,0,0,1,4.406,1.43,3.794,3.794,0,0,1,1.617,2.707,1.168,1.168,0,0,1-1.242,1.242c-.621,0-.949-.34-1.324-.867a3.841,3.841,0,0,0-3.387-1.992c-2.355,0-3.785,1.582-3.785,4.688v2.25c0,3.012,1.453,4.758,3.949,4.758,2.2,0,3.41-1.348,3.41-3.07v-1.16H85.383c-.867,0-1.289-.457-1.289-1.113s.422-1.09,1.289-1.09h3.34c1.324,0,1.816.609,1.816,1.77v1.453c0,2.379-1.559,5.625-6.211,5.625-4.184,0-6.727-2.637-6.727-7.148Z"/>
    <path d="M17.156,40.559c0,1.055-.551,1.5-1.289,1.5s-1.254-.445-1.254-1.5V31.031h-.141l-3.422,7.828c-.34.75-.68,1.395-1.547,1.395-.891,0-1.23-.633-1.57-1.395L4.512,31.031H4.359v9.527c0,1.055-.539,1.5-1.277,1.5s-1.266-.445-1.266-1.5V27.809a1.632,1.632,0,0,1,1.676-1.863c1.008,0,1.441.609,1.91,1.688l4.043,9.375h.105l4.031-9.387c.492-1.113.938-1.676,1.922-1.676,1.1,0,1.652.727,1.652,1.863Z"/>
    <path d="M20.707,40.523V27.48a1.422,1.422,0,1,1,2.836,0V40.523a1.339,1.339,0,0,1-1.406,1.535A1.36,1.36,0,0,1,20.707,40.523Z"/>
    <path d="M29.121,42c-1.312,0-2.051-.527-2.051-1.945V27.48a1.422,1.422,0,1,1,2.836,0V39.563H35.73a1.221,1.221,0,1,1,0,2.438Z"/>
    <path d="M38.941,27.949c0-1.406.738-1.945,2.051-1.945h7a1.185,1.185,0,1,1,0,2.367H41.766v4.395h5.871a1.121,1.121,0,1,1,0,2.238H41.766v4.629h6.2A1.187,1.187,0,1,1,47.953,42H40.992c-1.312,0-2.051-.527-2.051-1.945Z"/>
  </g>
</svg>
