<svg enable-background="new 0 0 174 202" height="202" viewBox="0 0 174 202" width="174" xmlns="http://www.w3.org/2000/svg"><path d="m0 0h174v202h-174z" fill="none"/><path clip-rule="evenodd" d="m172 85.6c0-46.2-38-83.6-85-83.6s-85 37.4-85 83.6c0 37 24.4 68.2 58.2 79.2 7 4.8 14.6 12.4 18.8 23.6 0 0 2.8 11.6 8 11.6 5 0 8-11.6 8-11.6 4.2-11.2 11.6-18.8 18.8-23.6 33.8-11 58.2-42.4 58.2-79.2" fill="#34c759" fill-rule="evenodd"/><g fill="#fff"><path d="m104 43.8c0-1.2-.2-1.6-.4-2s-.6-.8-1-1-.8-.4-2-.4h-5.4c-1 0-1.4.2-1.8.4s-.8.6-1 1-.4.8-.4 2v8.4h12z"/><path d="m111 60c-.6-1.2-1.8-2.2-3-3s-2.6-1-6.2-1h-28c-3.2 0-4.4.4-5.8 1s-2.4 1.6-3 3c-.6 1.2-1 2.6-1 6v12.2c0 8.4 2.8 16.6 8 23.4l2.6 3.4c1.6 2 2.4 3.4 3.2 5s1.4 3.2 1.6 5c.2 1.6.4 3.2.4 5.4v1 4c0 1.8.2 2.8.8 3.4.4.8 1.2 1.6 2 2s1.8.6 4 .6h2.6c2.2 0 3-.2 4-.6.8-.4 1.6-1.2 2-2s.8-1.8.8-3.8v-4.2c0-2.4.2-4.2.4-5.8.4-1.8.8-3.4 1.6-5s1.8-3.2 3.6-5.4l2.2-3c5.2-6.8 8-15 8-23.4v-12.2c.2-3.4-.2-4.6-.8-6zm-10.4 20.2-15.8 19.2c-1.2 1.4-3 .6-2.6-1l2.2-11.8h-8c-1.6 0-2.2-1.2-1-2.8l15.8-19.2c1.2-1.4 3-.6 2.6 1l-2.2 11.8h8c1.8.2 2.4 1.4 1 2.8z"/><path d="m84 43.8c0-1.2-.2-1.6-.4-2s-.6-.8-1-1-.8-.4-2-.4h-5.4c-1 0-1.4.2-1.8.4s-.8.6-1 1-.4.8-.4 2v8.4h12z"/></g></svg>