<?xml version="1.0" encoding="utf-8"?>
<!-- Generator: Adobe Illustrator 21.1.0, SVG Export Plug-In . SVG Version: 6.00 Build 0)  -->
<svg version="1.1" id="Layer_1" xmlns="http://www.w3.org/2000/svg" xmlns:xlink="http://www.w3.org/1999/xlink" x="0px" y="0px"
	 viewBox="0 0 405 133" style="enable-background:new 0 0 405 133;" xml:space="preserve">
<style type="text/css">
	.st0{fill:#1EE169;}
	.st1{fill:#585758;}
	.st2{fill:#A7A8B0;}
	.st3{fill:#FFFFFF;}
</style>
<g>
	<path class="st0" d="M15,104.6H8c-2.6,0-4.6-2.1-4.6-4.6V81.3c0-2.6,2.1-4.6,4.6-4.6h7c2.6,0,4.6,2.1,4.6,4.6v18.6
		C19.7,102.5,17.6,104.6,15,104.6z"/>
	<path class="st0" d="M37.8,104.6h-6.7c-2.6,0-4.6-2.1-4.6-4.6V81.3c0-2.6,2.1-4.6,4.6-4.6h6.7c2.6,0,4.6,2.1,4.6,4.6v18.6
		C42.4,102.5,40.3,104.6,37.8,104.6z"/>
	<path class="st0" d="M60.1,104.6h-6.7c-2.6,0-4.6-2.1-4.6-4.6V81.3c0-2.6,2.1-4.6,4.6-4.6h6.7c2.6,0,4.6,2.1,4.6,4.6v18.6
		C65,102.5,62.7,104.6,60.1,104.6z"/>
	<path class="st0" d="M82.6,104.6h-6.7c-2.6,0-4.6-2.1-4.6-4.6V81.3c0-2.6,2.1-4.6,4.6-4.6h6.7c2.6,0,4.6,2.1,4.6,4.6v18.6
		C87.3,102.5,85.2,104.6,82.6,104.6z"/>
	<path class="st0" d="M104.9,104.6h-6.7c-2.6,0-4.6-2.1-4.6-4.6V81.3c0-2.6,2.1-4.6,4.6-4.6h6.7c2.6,0,4.6,2.1,4.6,4.6v18.6
		C109.8,102.5,107.5,104.6,104.9,104.6z"/>
	<path class="st0" d="M127.5,104.6h-6.7c-2.6,0-4.6-2.1-4.6-4.6V81.3c0-2.6,2.1-4.6,4.6-4.6h6.7c2.6,0,4.6,2.1,4.6,4.6v18.6
		C132.1,102.5,130,104.6,127.5,104.6z"/>
	<path class="st1" d="M149.8,104.6H143c-2.6,0-4.6-2.1-4.6-4.6V81.3c0-2.6,2.1-4.6,4.6-4.6h6.7c2.6,0,4.6,2.1,4.6,4.6v18.6
		C154.4,102.5,152.3,104.6,149.8,104.6z"/>
	<path class="st1" d="M172.1,104.6h-6.7c-2.6,0-4.6-2.1-4.6-4.6V81.3c0-2.6,2.1-4.6,4.6-4.6h6.7c2.6,0,4.6,2.1,4.6,4.6v18.6
		C177,102.5,174.9,104.6,172.1,104.6z"/>
	<path class="st1" d="M194.6,104.6h-6.7c-2.6,0-4.6-2.1-4.6-4.6V81.3c0-2.6,2.1-4.6,4.6-4.6h6.7c2.6,0,4.6,2.1,4.6,4.6v18.6
		C199.3,102.5,197.2,104.6,194.6,104.6z"/>
	<path class="st1" d="M216.9,104.6h-6.7c-2.6,0-4.6-2.1-4.6-4.6V81.3c0-2.6,2.1-4.6,4.6-4.6h6.7c2.6,0,4.6,2.1,4.6,4.6v18.6
		C221.8,102.5,219.7,104.6,216.9,104.6z"/>
	<path class="st1" d="M239.5,109.2h-6.7c-2.6,0-4.6-2.1-4.6-4.6V76.7c0-2.6,2.1-4.6,4.6-4.6h6.7c2.6,0,4.6,2.1,4.6,4.6v27.9
		C244.1,107.1,242,109.2,239.5,109.2z"/>
	<path class="st1" d="M261.8,104.6H255c-2.6,0-4.6-2.1-4.6-4.6V81.3c0-2.6,2.1-4.6,4.6-4.6h6.7c2.6,0,4.6,2.1,4.6,4.6v18.6
		C266.7,102.5,264.6,104.6,261.8,104.6z"/>
	<path class="st1" d="M284.3,104.6h-6.7c-2.6,0-4.6-2.1-4.6-4.6V81.3c0-2.6,2.1-4.6,4.6-4.6h6.7c2.6,0,4.6,2.1,4.6,4.6v18.6
		C289,102.5,286.9,104.6,284.3,104.6z"/>
	<path class="st1" d="M306.6,104.6h-6.7c-2.6,0-4.6-2.1-4.6-4.6V81.3c0-2.6,2.1-4.6,4.6-4.6h6.7c2.6,0,4.6,2.1,4.6,4.6v18.6
		C311.5,102.5,309.4,104.6,306.6,104.6z"/>
	<path class="st1" d="M329.2,104.6h-6.7c-2.6,0-4.6-2.1-4.6-4.6V81.3c0-2.6,2.1-4.6,4.6-4.6h6.7c2.6,0,4.6,2.1,4.6,4.6v18.6
		C333.8,102.5,331.7,104.6,329.2,104.6z"/>
	<path class="st1" d="M351.5,104.6h-6.7c-2.6,0-4.6-2.1-4.6-4.6V81.3c0-2.6,2.1-4.6,4.6-4.6h6.7c2.6,0,4.6,2.1,4.6,4.6v18.6
		C356.4,102.5,354.3,104.6,351.5,104.6z"/>
	<path class="st1" d="M374,104.6h-6.7c-2.6,0-4.6-2.1-4.6-4.6V81.3c0-2.6,2.1-4.6,4.6-4.6h6.7c2.6,0,4.6,2.1,4.6,4.6v18.6
		C378.7,102.5,376.6,104.6,374,104.6z"/>
	<path class="st1" d="M396.1,104.6h-7c-2.6,0-4.6-2.1-4.6-4.6V81.3c0-2.6,2.1-4.6,4.6-4.6h6.7c2.6,0,4.6,2.1,4.6,4.6v18.6
		C400.7,102.5,398.6,104.6,396.1,104.6z"/>
</g>
<g>
	<path class="st2" d="M7,123.3h1.2c1.2,0,2.1-0.8,2.1-2c0-1.1-0.9-1.9-2.1-1.9c-1.2,0-2,0.8-2.1,1.6H4.6c0.1-1.5,1.3-2.9,3.6-3
		c2.2,0,3.6,1.3,3.7,3c0.1,1.6-1.3,2.6-2.2,2.8v0.1c1,0.1,2.5,0.9,2.5,2.8c0,2.1-1.7,3.5-4.1,3.5c-2.3,0-3.8-1.3-3.9-3h1.5
		c0.1,0.9,1.1,1.6,2.4,1.6c1.5,0,2.5-0.9,2.5-2.2c0-1.2-1-2.1-2.4-2.1H7V123.3z"/>
	<path class="st2" d="M14.6,124c0-3.5,1.5-5.9,4.2-5.9c2.6,0,4.2,2.3,4.2,5.9v0.4c0,3.5-1.5,5.8-4.2,5.8c-2.6,0-4.2-2.3-4.2-5.8V124
		z M16.1,124.4c0,2.8,1,4.5,2.6,4.5c1.6,0,2.6-1.7,2.6-4.5V124c0-2.8-1-4.5-2.6-4.5c-1.6,0-2.6,1.7-2.6,4.5V124.4z"/>
</g>
<g>
	<path class="st3" d="M9.5,39.1c0.8,4.2,4.8,5.8,8.7,5.8c4.3,0,8.9-3.3,8.9-9.6c0-5.5-4.2-8.9-9-8.9c-4.4,0-7.1,2.5-8.3,4.6H5
		L6.9,6.8h23.8v5h-19l-1.1,13.4h0.3c0.9-1.4,3.8-3.6,8.5-3.6c7.4,0,13.5,5,13.5,13.6c0,8.8-6.1,14.7-15,14.7
		c-7.8,0-13.4-4.5-13.8-10.7H9.5z"/>
	<path class="st3" d="M49.4,24.8h4.4c4.4,0,7.7-3,7.7-7.1c0-4.1-3.2-6.9-7.7-6.9c-4.5,0-7.4,2.8-7.7,5.8h-5.4
		C40.9,11.2,45.4,6,53.8,5.9c8-0.1,13.2,4.7,13.4,10.8c0.2,6-4.6,9.5-7.8,10.1v0.3c3.6,0.4,9.1,3.3,9.2,10.2
		c0.2,7.4-6.2,12.6-15,12.6c-8.4,0-13.6-4.8-13.9-10.8H45c0.4,3.3,3.9,5.9,8.8,5.9c5.6,0,9.2-3.3,9.1-7.8c-0.1-4.5-3.6-7.5-8.8-7.5
		h-4.6V24.8z"/>
</g>
<g>
	<path class="st3" d="M84.8,38.9h0.1v-6.1h2V49h-2v-1.9h-0.1c-0.3,1.2-1.8,2.1-3.6,2.1c-2.8,0-4.6-1.9-4.6-5v-2.3c0-3,1.8-5,4.6-5
		C83,36.9,84.3,37.7,84.8,38.9z M78.8,42.3v1.4c0,2.3,1.1,3.6,3,3.6c1.9,0,3.1-1.3,3.1-3.4v-2c0-1.9-1.3-3.2-3.1-3.2
		C79.9,38.7,78.8,40.1,78.8,42.3z"/>
	<path class="st3" d="M91.1,33.6h5.8c2.6,0,4.3,1.5,4.3,3.8c0,1.8-0.9,2.9-2.5,3.4v0.1c2,0.3,3.4,1.6,3.4,3.8c0,2.7-2.1,4.3-5.4,4.3
		h-5.6V33.6z M93.1,40.2h2.3c2.5,0,3.7-0.8,3.7-2.5c0-1.5-0.9-2.3-2.6-2.3h-3.4V40.2z M93.1,47.2h2.6c3,0,4.2-0.8,4.2-2.5
		c0-1.7-1.2-2.7-3.2-2.7h-3.6V47.2z"/>
</g>
<g>
	<path class="st2" d="M226.6,126.8c0-1.8,1.4-2.7,2.4-2.9v-0.1c-0.8-0.3-1.9-1.1-1.9-2.6c0-1.8,1.6-3.1,3.7-3.1
		c2.1,0,3.7,1.3,3.7,3.1c0,1.6-1.1,2.3-1.9,2.6v0.1c1,0.2,2.4,1.1,2.4,2.9c0,2-1.8,3.4-4.2,3.4C228.3,130.2,226.6,128.9,226.6,126.8
		z M233.4,126.8c0-1.3-1.1-2.2-2.6-2.2c-1.5,0-2.6,0.9-2.6,2.2c0,1.3,1.1,2.2,2.6,2.2C232.3,128.9,233.4,128,233.4,126.8z
		 M233,121.3c0-1.1-0.9-1.9-2.2-1.9c-1.3,0-2.2,0.8-2.2,1.9c0,1.2,0.9,1.9,2.2,1.9C232,123.3,233,122.5,233,121.3z"/>
	<path class="st2" d="M237.2,124c0-3.5,1.5-5.9,4.2-5.9c2.6,0,4.2,2.3,4.2,5.9v0.4c0,3.5-1.5,5.8-4.2,5.8c-2.6,0-4.2-2.3-4.2-5.8
		V124z M238.7,124.4c0,2.8,1,4.5,2.6,4.5c1.6,0,2.6-1.7,2.6-4.5V124c0-2.8-1-4.5-2.6-4.5c-1.6,0-2.6,1.7-2.6,4.5V124.4z"/>
</g>
<g>
	<path class="st2" d="M376.6,130v-10h-0.1l-2.7,1.9v-1.6l2.8-2.1h1.6V130H376.6z"/>
	<path class="st2" d="M381.7,121.6L381.7,121.6c0-1.8,1.3-3.5,3.7-3.5c2.2,0,3.6,1.4,3.6,3.2c0,1.5-0.9,2.5-2,3.7l-3.1,3.5v0.1h5.3
		v1.4h-7.5v-1l4.4-5c0.6-0.7,1.3-1.5,1.3-2.6c0-1.2-0.9-2-2.1-2c-1.4,0-2.1,1-2.1,2.1c0,0,0,0.1,0,0.1H381.7z"/>
	<path class="st2" d="M391.5,124c0-3.5,1.5-5.9,4.2-5.9c2.6,0,4.2,2.3,4.2,5.9v0.4c0,3.5-1.5,5.8-4.2,5.8c-2.6,0-4.2-2.3-4.2-5.8
		V124z M393,124.4c0,2.8,1,4.5,2.6,4.5c1.6,0,2.6-1.7,2.6-4.5V124c0-2.8-1-4.5-2.6-4.5c-1.6,0-2.6,1.7-2.6,4.5V124.4z"/>
</g>
</svg>
