<svg xmlns="http://www.w3.org/2000/svg" width="70" height="21" viewBox="0 0 70 21"><path d="M6.3976,16.3121V5.7368H9.0049c2.2408,0,3.2813.8644,3.2813,3.12s-1.04,3.12-3.2813,3.12H8.2138v4.3359Zm1.8162-5.83h.7033c1.1872,0,1.5525-.3661,1.5525-1.626s-.3653-1.6257-1.5525-1.6257H8.2138Zm6.9749,5.83H13.3724V5.7368h2.5491c2.0361,0,3.0755.8644,3.0755,3.12,0,1.6987-.6589,2.3881-1.2745,2.6662l1.538,4.79H17.4153l-1.2889-4.3793a8.9982,8.9982,0,0,1-.9377.0434Zm0-5.83h.6448c.9812,0,1.3471-.3661,1.3471-1.626s-.3659-1.6257-1.3471-1.6257h-.6448ZM19.9989,8.3a2.5409,2.5409,0,0,1,2.7826-2.71A2.5415,2.5415,0,0,1,25.5649,8.3v5.4486a2.5412,2.5412,0,0,1-2.7834,2.71,2.5405,2.5405,0,0,1-2.7826-2.71Zm1.8164,5.4051c0,.7909.2343,1.1714.9662,1.1714s.967-.38.967-1.1714v-5.36c0-.7922-.2347-1.173-.967-1.173s-.9662.3808-.9662,1.173ZM26.8,5.7368h2.695c1.8751,0,2.87,1.0251,2.87,3.1923v4.19c0,2.167-.9951,3.1927-2.87,3.1927H26.8Zm1.8161,9.0808h.6294c.9675,0,1.3038-.3659,1.3038-1.4787V8.71c0-1.113-.3363-1.4793-1.3038-1.4793h-.6294Zm4.81-9.0808h1.8157V13.72c0,.7764.3077,1.1569.966,1.1569.66,0,.9672-.38.9672-1.1569V5.7368h1.8155v7.9094a2.5511,2.5511,0,0,1-2.7827,2.812,2.551,2.551,0,0,1-2.7817-2.812Zm10.287,3.53v-.82c0-.8937-.41-1.2745-.8785-1.2745-.7328,0-.9671.3808-.9671,1.173v5.36c0,.7909.2343,1.1714.9671,1.1714.6585,0,.8785-.38.8785-1.0691V12.5331h1.816v1.2156a2.5154,2.5154,0,0,1-2.6945,2.71,2.5415,2.5415,0,0,1-2.7836-2.71V8.3a2.5418,2.5418,0,0,1,2.7836-2.71,2.6212,2.6212,0,0,1,2.6945,2.9v.7764ZM47.9065,7.319H46.1491V5.7368H51.48V7.319H49.7231v8.9931H47.9065ZM2.8237,18.8293a13.8021,13.8021,0,0,1-1.5426-2.55A13.7048,13.7048,0,0,1,0,10.487,13.4639,13.4639,0,0,1,1.2811,4.6943,13.6509,13.6509,0,0,1,4.89,0L6.0922,1.4124A12.0184,12.0184,0,0,0,2.98,5.4925a11.9419,11.9419,0,0,0,0,10.0029,11.7322,11.7322,0,0,0,3.1122,4.0665L4.89,21A13.5256,13.5256,0,0,1,2.8237,18.8293Zm48.1446.7326a11.81,11.81,0,0,0,4.21-9.0749A11.6623,11.6623,0,0,0,54.08,5.4925a12.0118,12.0118,0,0,0-3.1121-4.08L52.1713,0A13.6622,13.6622,0,0,1,55.78,4.6943a13.48,13.48,0,0,1,1.2816,5.7927A13.6993,13.6993,0,0,1,55.78,16.2793a13.8765,13.8765,0,0,1-1.5432,2.55A13.5533,13.5533,0,0,1,52.1713,21ZM58.9228,7.6025H57.729V.6491h1.6749c1.3392,0,2.0217.5678,2.0217,2.0515,0,1.1163-.4327,1.57-.8363,1.7522l1.01,3.15H60.3861l-.8473-2.8793a5.514,5.514,0,0,1-.616.0292Zm0-3.8326h.4236c.6463,0,.8866-.24.8866-1.0693s-.24-1.0694-.8866-1.0694h-.4236Zm3.3536,3.8326V.6491h3.2V1.69H63.4708V3.48h1.5411V4.5211H63.4708V6.5625h2.1378v1.04ZM66.287.6491h1.7714c1.2336,0,1.8872.6743,1.8872,2.0992v2.756c0,1.4244-.6536,2.0982-1.8872,2.0982H66.287Zm1.1938,5.9721h.4133c.6371,0,.8582-.2421.8582-.9736V2.6042c0-.7324-.2211-.973-.8582-.973h-.4133Z" fill="#af1e2d"/></svg>
