<svg xmlns="http://www.w3.org/2000/svg" width="1892" height="1084"><path fill-rule="evenodd" d="M235.718 3.993c360.964 0 711.818-.005 1072.782-.005 92.657 0 247.137.012 339.794.012 12.214 0 22.686-.051 31.677 1.987 6.417 1.454 11.964 4.008 17.383 8.241 3.851 3.009 6.973 6.924 9.419 11.411 2.157 3.955 3.79 8.355 4.935 12.97.81 3.263 1.322 10.284 1.322 18.034 0 58.494-.008 150.363-.008 208.857 0 259.467-.017 730.172-.017 742.717 0 5.003-.553 12.717-1.957 17.283 43.329-.167 152.116-.022 176.387-.022 1.882 0 1.682.768 1.682 2.38 0 10.294-.218 19.295-.218 28.627-9.983 6.895-44.893 14.02-74.608 18.318-7.24 1.047-26.845 3.073-46.854 4.307-19.375 1.196-41.49 1.611-49.71 1.713-13.895.174-47.268.72-54.601.72-27.663 0-36.491-.039-64.155-.039-423.152 0-1187.651-.02-1187.651-.02s-87.414.057-130.849.057c-28.547.001-76.806-.292-87.852-.45-11.212-.16-37.8-.718-62.485-1.814-5.4-.24-30.708-1.485-57.49-5.248-27.487-3.862-61.655-11.894-69.158-17.5 0-8.919.069-23.497.069-30.363.132-.334.359-.685.538-.685 58.982 0 118.131.019 177.451.019-1.87-5.153-2.12-15.248-2.12-27 0 24.994.051-117.198.051-213 0-327.049-.052-825.572-.052-729 0-16 3.105-26.292 7.577-33 6.205-9.308 14.595-14.486 22.661-16.756 9.887-2.782 19.224-2.751 26.057-2.751z"/></svg>