<svg xmlns="http://www.w3.org/2000/svg" width="366" height="299"><clipPath id="mask"><path fill-rule="evenodd" d="M185.528 162.893h-.074c-.335 17.655-1.056 30.551-11.664 40.594-10.274 9.727-26.15 10.536-39.386 10.536H72.593c-10.924 0-23.607-.397-33.443-6.079-.921-.532-9.843-5.769-13.951-16.603-2.199-5.796-3.619-14.121-3.619-25.648 0-10.075-.111-93.983-.111-93.983.336-17.655 1.379-30.551 11.987-40.594 10.274-9.727 25.72-10.213 38.956-10.213h62.066c13.236 0 28.574.486 38.849 10.213 9.851 9.327 11.454 21.115 11.9 36.89.128 1.468.301 94.887.301 94.887z"/></clipPath></svg>