<svg xmlns="http://www.w3.org/2000/svg" width="509" height="415"><clipPath id="mask"><path fill-rule="evenodd" d="M29.466 100.117c.467-24.586 1.92-42.544 16.692-56.529 14.308-13.546 35.817-14.222 54.249-14.222h86.428c18.432 0 39.792.676 54.099 14.222 13.719 12.988 16.099 29.403 16.722 51.371.178 2.044.119 4.113.119 6.203l.15 125.931h-.103c-.467 24.586-1.47 42.544-16.243 56.529-14.307 13.546-36.415 14.671-54.847 14.671H100.659c-15.213 0-32.874-.552-46.571-8.465-1.283-.741-13.707-8.033-19.428-23.119-3.062-8.072-5.04-19.664-5.04-35.716 0-14.03-.154-130.876-.154-130.876z"/></clipPath></svg>