<?xml version="1.0" encoding="utf-8"?>
<!-- Generator: Adobe Illustrator 18.0.0, SVG Export Plug-In . SVG Version: 6.00 Build 0)  -->
<!DOCTYPE svg PUBLIC "-//W3C//DTD SVG 1.1//EN" "http://www.w3.org/Graphics/SVG/1.1/DTD/svg11.dtd">
<svg version="1.1" id="Layer_1" xmlns="http://www.w3.org/2000/svg" xmlns:xlink="http://www.w3.org/1999/xlink" x="0px" y="0px"
	 width="44px" height="44px" viewBox="0 0 44 44" enable-background="new 0 0 44 44" xml:space="preserve">
<g>
	<g>
		<path fill="#888888" d="M16.678,12.153c0,0,0.639,0.331,0.877,0.963c0.239,0.632,1.083,3.389,1.083,3.389s0.541,1.032-0.118,1.648
			c-0.659,0.615-1.173,1.193-1.173,1.193s-0.497,0.342-0.037,1.179c0.46,0.838,1.247,2.409,2.084,3.273
			c0.837,0.865,3.71,3.012,4.214,3.237c0.505,0.226,1.038,0.028,1.247-0.241c0.208-0.269,1.797-1.999,1.797-1.999
			s0.679-0.235,0.9-0.029c0.222,0.205,4.323,2.57,4.323,2.57s0.117,2.6-1.5,3.595c-2.107,1.297-4.677,1.27-7.507-0.164
			c-2.83-1.435-4.489-2.69-6.149-4.608c-1.66-1.918-3.821-5.433-4.383-7.508c-0.561-2.075,0.06-4.158,0.89-5.186
			C14.057,12.437,14.702,12.01,16.678,12.153z"/>
	</g>
	<path fill="#888888" d="M22,1.801c11.138,0,20.199,9.061,20.199,20.199S33.138,42.199,22,42.199S1.801,33.138,1.801,22
		S10.862,1.801,22,1.801 M22,0.361C10.049,0.361,0.361,10.049,0.361,22c0,11.951,9.688,21.639,21.639,21.639
		S43.639,33.951,43.639,22C43.639,10.049,33.951,0.361,22,0.361L22,0.361z"/>
</g>
</svg>
