<?xml version="1.0" encoding="utf-8"?>
<!-- Generator: Adobe Illustrator 18.0.0, SVG Export Plug-In . SVG Version: 6.00 Build 0)  -->
<!DOCTYPE svg PUBLIC "-//W3C//DTD SVG 1.1//EN" "http://www.w3.org/Graphics/SVG/1.1/DTD/svg11.dtd">
<svg version="1.1" id="Layer_1" xmlns="http://www.w3.org/2000/svg" xmlns:xlink="http://www.w3.org/1999/xlink" x="0px" y="0px"
	 width="44px" height="44px" viewBox="0 0 44 44" enable-background="new 0 0 44 44" xml:space="preserve">
<g>
	<path fill="#888888" d="M30.722,27.044H15.487l-3.158-11.972h-2.93v-1.623h4.181l0.792,3.001l17.927,0.014L30.722,27.044z
		 M16.737,25.421h12.585l1.092-7.336l-15.616-0.012L16.737,25.421z"/>
	<path fill="#888888" d="M17.77,28.976c0.808,0,1.464,0.655,1.464,1.464c0,0.808-0.655,1.463-1.464,1.463
		c-0.808,0-1.463-0.653-1.463-1.462C16.307,29.631,16.962,28.976,17.77,28.976z"/>
	<path fill="#888888" d="M28.042,28.976c0.807,0,1.461,0.655,1.461,1.464c0,0.808-0.654,1.462-1.461,1.462
		c-0.809,0-1.466-0.654-1.466-1.462C26.575,29.631,27.232,28.976,28.042,28.976z"/>
	<path fill="#888888" d="M22,1.984c11.037,0,20.016,8.979,20.016,20.016S33.037,42.016,22,42.016S1.984,33.037,1.984,22
		S10.963,1.984,22,1.984 M22,0.361C10.049,0.361,0.361,10.049,0.361,22c0,11.951,9.688,21.639,21.639,21.639
		S43.639,33.951,43.639,22C43.639,10.049,33.951,0.361,22,0.361L22,0.361z"/>
</g>
</svg>
