<?xml version="1.0" encoding="utf-8"?>
<!-- Generator: Adobe Illustrator 16.0.4, SVG Export Plug-In . SVG Version: 6.00 Build 0)  -->
<!DOCTYPE svg PUBLIC "-//W3C//DTD SVG 1.0//EN" "http://www.w3.org/TR/2001/REC-SVG-20010904/DTD/svg10.dtd">
<svg version="1.0" id="Layer_1" xmlns="http://www.w3.org/2000/svg" xmlns:xlink="http://www.w3.org/1999/xlink" x="0px" y="0px"
	 width="269.6px" height="64.494px" viewBox="0 0 269.6 64.494" enable-background="new 0 0 269.6 64.494" xml:space="preserve">
<g id="Thin">
	<defs>
		<rect id="SVGID_1_" x="-67" width="336.6" height="64.494"/>
	</defs>
	<clipPath id="SVGID_2_">
		<use xlink:href="#SVGID_1_"  overflow="visible"/>
	</clipPath>
	<path clip-path="url(#SVGID_2_)" d="M251.911,60.911c-2.338,0-4.404-0.478-6.201-1.434c-1.797-0.954-3.31-2.298-4.537-4.031
		c-1.229-1.73-2.172-3.82-2.832-6.27c-0.659-2.448-0.988-5.165-0.988-8.151c0-0.656,0.091-1.268,0.27-1.837
		c0.179-0.565,0.389-1.088,0.63-1.566c1.377-2.509,3.25-4.524,5.616-6.046c2.366-1.523,4.897-2.285,7.593-2.285
		c1.976,0,3.804,0.329,5.483,0.986c1.676,0.658,3.129,1.627,4.357,2.911c1.228,1.285,2.187,2.884,2.875,4.792
		c0.688,1.912,1.034,4.151,1.034,6.718c0,2.509-0.33,4.764-0.99,6.764c-0.659,2.002-1.573,3.704-2.74,5.105
		c-1.169,1.404-2.561,2.479-4.179,3.226c-1.618,0.747-3.384,1.119-5.301,1.119H251.911z M264.227,4.3
		c-5.078,0.239-9.556,1.33-13.438,3.269c-3.882,1.942-7.135,4.51-9.759,7.704c-2.626,3.195-4.597,6.928-5.912,11.197
		c-1.317,4.27-1.975,8.823-1.975,13.66c0,3.941,0.477,7.421,1.433,10.435c0.955,3.018,2.285,5.555,3.985,7.614
		c1.702,2.061,3.674,3.628,5.912,4.703c2.24,1.075,4.672,1.612,7.302,1.612c2.865,0,5.419-0.566,7.657-1.697
		c2.24-1.131,4.105-2.636,5.6-4.513c1.491-1.878,2.627-4.036,3.403-6.48c0.775-2.44,1.164-4.945,1.164-7.507
		c0-2.681-0.389-5.168-1.164-7.462c-0.776-2.294-1.912-4.26-3.403-5.899c-1.494-1.638-3.285-2.918-5.375-3.842
		c-2.092-0.924-4.449-1.386-7.076-1.386c-3.464,0-6.449,0.807-8.958,2.419c-2.508,1.612-4.449,3.493-5.822,5.643h-0.269
		c0.298-3.404,1.12-6.647,2.464-9.734c1.343-3.086,3.148-5.8,5.419-8.142c2.269-2.34,4.985-4.201,8.15-5.581
		c3.165-1.38,6.719-2.072,10.661-2.072V4.3z M185.042,38.159c0.178-1.683,0.564-3.409,1.161-5.182
		c0.595-1.771,1.458-3.393,2.589-4.865s2.529-2.689,4.196-3.65c1.666-0.96,3.629-1.442,5.891-1.442c2.5,0,4.553,0.497,6.16,1.488
		c1.605,0.991,2.887,2.238,3.839,3.74c0.952,1.501,1.607,3.138,1.963,4.91c0.357,1.771,0.537,3.438,0.537,5H185.042z
		 M215.677,41.562c0.06-0.476,0.092-0.891,0.092-1.248v-1.428c0-1.604-0.212-3.509-0.629-5.709c-0.419-2.2-1.225-4.297-2.419-6.29
		c-1.195-1.991-2.852-3.702-4.971-5.129c-2.121-1.428-4.913-2.142-8.375-2.142c-2.688,0-5.182,0.538-7.48,1.61
		c-2.3,1.072-4.285,2.621-5.957,4.648c-1.672,2.027-2.986,4.456-3.94,7.286c-0.956,2.832-1.434,6.035-1.434,9.609
		c0,3.159,0.457,6.065,1.373,8.718c0.915,2.651,2.229,4.932,3.941,6.838c1.712,1.907,3.778,3.398,6.196,4.471
		c2.419,1.07,5.15,1.608,8.195,1.608c3.583,0,6.465-0.337,8.645-1.006c2.179-0.669,3.688-1.236,4.523-1.703l-1.074-3.292
		c-1.195,0.536-2.703,1.073-4.524,1.611c-1.82,0.537-4.165,0.806-7.031,0.806c-2.149,0-4.195-0.345-6.136-1.034
		c-1.941-0.69-3.643-1.815-5.106-3.374c-1.464-1.56-2.628-3.556-3.492-5.985c-0.867-2.429-1.3-5.415-1.3-8.954L215.677,41.562z
		 M141.958,63.509h4.21V36.815c0-1.373,0.208-2.627,0.627-3.762c0.835-2.867,2.387-5.225,4.657-7.077
		c2.269-1.85,4.896-2.777,7.883-2.777c2.15,0,3.971,0.403,5.464,1.21c1.492,0.806,2.688,1.881,3.583,3.224
		c0.896,1.344,1.537,2.911,1.926,4.703c0.389,1.791,0.582,3.643,0.582,5.554v25.618h4.21V37.496c0-3.934-0.567-7.077-1.702-9.431
		s-2.493-4.156-4.074-5.408c-1.583-1.251-3.196-2.071-4.837-2.459c-1.645-0.386-2.973-0.581-3.986-0.581
		c-3.464,0-6.45,0.829-8.958,2.483c-2.508,1.655-4.33,3.664-5.464,6.027h-0.358v-7.614h-4.121c0.119,1.733,0.209,3.375,0.27,4.927
		c0.059,1.553,0.09,3.345,0.09,5.374V63.509z M123.936,24.947c1.94,1.225,3.508,2.763,4.703,4.613
		c1.194,1.852,2.074,3.867,2.643,6.045c0.566,2.182,0.851,4.255,0.851,6.227c0,2.808-0.389,5.374-1.164,7.703
		c-0.777,2.328-1.852,4.331-3.225,6.002c-1.374,1.672-3.017,2.986-4.928,3.94c-1.911,0.956-3.972,1.434-6.18,1.434
		c-2.27,0-4.331-0.478-6.181-1.434c-1.853-0.954-3.449-2.269-4.792-3.94c-1.344-1.671-2.39-3.657-3.135-5.957
		c-0.748-2.299-1.12-4.792-1.12-7.479c0-2.269,0.298-4.538,0.896-6.808c0.597-2.27,1.536-4.3,2.821-6.091
		c1.284-1.792,2.896-3.254,4.837-4.389c1.94-1.134,4.255-1.702,6.942-1.702C119.65,23.111,121.995,23.724,123.936,24.947
		 M109.486,21.006c-2.354,0.985-4.453,2.449-6.301,4.389c-1.848,1.941-3.308,4.33-4.379,7.166c-1.072,2.837-1.608,6.106-1.608,9.809
		c0,3.403,0.491,6.465,1.474,9.182c0.982,2.718,2.338,5.047,4.067,6.987c1.727,1.94,3.768,3.419,6.122,4.434
		c2.353,1.016,4.87,1.522,7.552,1.522c2.323,0,4.661-0.435,7.015-1.298c2.354-0.865,4.497-2.225,6.435-4.076
		c1.937-1.851,3.5-4.225,4.692-7.121c1.191-2.896,1.787-6.344,1.787-10.345c0-3.346-0.477-6.374-1.43-9.094
		c-0.953-2.717-2.279-5.046-3.977-6.987c-1.699-1.94-3.739-3.433-6.122-4.479c-2.384-1.044-5.003-1.567-7.864-1.567
		C114.326,19.528,111.839,20.02,109.486,21.006 M58.592,63.509h4.21V37.084c0-1.612,0.208-3.013,0.627-4.21
		c0.895-2.687,2.463-4.971,4.702-6.852c2.24-1.881,4.882-2.822,7.928-2.822c2.15,0,3.955,0.403,5.419,1.21
		c1.463,0.806,2.643,1.881,3.538,3.224c0.896,1.344,1.537,2.897,1.926,4.658c0.388,1.762,0.582,3.599,0.582,5.509v25.708h4.21
		V37.316c0-3.873-0.568-6.972-1.702-9.295c-1.135-2.324-2.478-4.112-4.03-5.364c-1.554-1.251-3.151-2.071-4.793-2.459
		c-1.643-0.386-2.971-0.581-3.986-0.581c-3.345,0-6.211,0.755-8.599,2.261c-2.389,1.507-4.27,3.56-5.643,6.159h-0.179V0h-4.21
		V63.509z M25.369,6.987c0.836-0.179,1.94-0.343,3.315-0.492c1.373-0.149,3.014-0.224,4.926-0.224c2.388,0,4.569,0.284,6.539,0.851
		c1.971,0.568,3.673,1.403,5.106,2.508c1.433,1.105,2.537,2.523,3.314,4.255c0.776,1.732,1.165,3.762,1.165,6.091
		c0,4.837-1.494,8.509-4.479,11.017c-2.987,2.508-7.137,3.762-12.451,3.762c-1.433,0-2.777-0.059-4.031-0.179
		c-1.254-0.119-2.389-0.327-3.404-0.627V6.987z M21.159,63.509h4.21V37.711c2.024,0.419,4.375,0.627,7.054,0.627
		c3.096,0,5.953-0.387,8.573-1.164c2.619-0.775,4.88-1.955,6.785-3.538c1.905-1.582,3.408-3.538,4.51-5.867
		c1.101-2.329,1.653-5.046,1.653-8.152c0-2.567-0.396-4.837-1.186-6.807c-0.791-1.971-1.888-3.673-3.293-5.106
		c-1.673-1.612-3.807-2.851-6.405-3.718c-2.597-0.864-5.688-1.298-9.271-1.298c-2.508,0-4.807,0.12-6.897,0.358
		c-2.091,0.239-4.001,0.508-5.733,0.806V63.509z M12.346,20.513h-4.21v42.996h4.21V20.513z M7.643,9.988
		c0.686,0.687,1.537,1.03,2.553,1.03c1.015,0,1.881-0.343,2.598-1.03c0.716-0.686,1.074-1.537,1.074-2.553
		c0-1.015-0.358-1.881-1.074-2.598c-0.717-0.716-1.583-1.074-2.598-1.074c-1.016,0-1.867,0.358-2.553,1.074
		c-0.687,0.717-1.03,1.583-1.03,2.598C6.613,8.451,6.956,9.302,7.643,9.988"/>
</g>
<g id="Ultralight" display="none">
	<path display="inline" fill="#231F20" d="M9.284,9.876c-1.256,0-2.242-0.987-2.242-2.152c0-1.256,0.985-2.243,2.242-2.243
		s2.242,0.986,2.242,2.243C11.525,8.889,10.54,9.876,9.284,9.876 M10.629,63.508H7.938V20.28h2.691V63.508z"/>
	<path display="inline" fill="#231F20" d="M32.835,2.611c12.018,0,19.461,5.023,19.461,16.863c0,11.299-8.162,18.295-20.986,18.295
		c-2.781,0-5.471-0.179-7.893-0.628v26.367h-2.691V3.868C23.597,3.33,27.453,2.611,32.835,2.611 M23.417,34.809
		c2.421,0.538,5.202,0.718,7.981,0.718c11.659,0,18.207-6.188,18.207-15.875c0-10.583-6.816-14.708-16.861-14.708
		c-4.395,0-7.354,0.538-9.327,0.896V34.809z"/>
	<path display="inline" fill="#231F20" d="M61.712,63.508h-2.691V-0.079h2.691v28.251c2.871-5.74,7.803-8.789,14.17-8.789
		c8.879,0,14.529,5.739,14.529,18.207v25.918h-2.69V38.217c0-11.301-4.395-16.323-12.198-16.323
		c-7.354,0-11.479,5.112-13.094,10.224c-0.629,2.063-0.718,3.408-0.718,6.547V63.508z"/>
	<path display="inline" fill="#231F20" d="M115.883,64.494c-10.582,0-18.837-8.52-18.837-22.241c0-14.708,8.972-22.87,19.375-22.87
		c11.212,0,18.925,8.789,18.925,22.152C135.346,57.679,125.121,64.494,115.883,64.494 M116.421,21.894
		c-10.133,0-16.592,8.43-16.592,20.269c0,12.018,6.907,19.82,16.322,19.82c8.432,0,16.414-6.905,16.414-20.448
		C132.565,31.042,126.826,21.894,116.421,21.894"/>
	<path display="inline" fill="#231F20" d="M144.941,63.508h-2.691V31.31c-0.089-4.125-0.042-7.726-0.22-10.686h2.6l0.131,7.279
		c2.421-4.934,7.623-8.52,14.171-8.52c8.341,0,14.708,4.663,14.708,17.757v26.367h-2.691V37.41c0-11.57-4.753-15.516-12.465-15.516
		c-6.546,0-11.21,4.395-12.824,9.597c-0.629,2.062-0.718,3.319-0.718,6.368V63.508z"/>
	<path display="inline" fill="#231F20" d="M199.558,64.405c-12.108,0-19.283-8.61-19.283-22.78c0-12.645,6.907-22.242,18.477-22.242
		c14.168,0,16.053,13.363,16.053,19.731c0,0.807-0.09,1.434-0.179,2.152h-31.57c0,13.184,6.368,20.717,16.682,20.717
		c5.919,0,9.596-1.436,12.108-2.602l0.537,2.333C210.319,62.7,206.195,64.405,199.558,64.405 M212.023,38.934
		c0.091-0.986,0-2.152-0.09-3.497c-0.448-5.741-3.587-13.632-13.631-13.632c-9.148,0-14.44,7.981-15.158,17.129H212.023z"/>
	<path display="inline" fill="#231F20" d="M234.479,39.921c0-19.731,10.133-34.977,28.789-35.695c0,0.807,0.09,1.705,0.09,2.51
		c-14.979,0.181-24.396,11.66-26.01,27.625c2.511-4.933,8.701-8.609,15.426-8.609c9.957,0,16.324,7.442,16.324,18.385
		c0,10.671-6.188,20.357-17.221,20.357C241.924,64.494,234.479,55.437,234.479,39.921 M252.326,28.352
		c-7.442,0-15.066,5.829-15.066,13.005c0,12.017,5.919,20.537,14.71,20.537c8.878,0.09,14.349-7.533,14.349-17.579
		C266.318,34.181,260.667,28.352,252.326,28.352"/>
</g>
</svg>
