<?xml version="1.0" encoding="utf-8"?>
<!-- Generator: Adobe Illustrator 16.0.4, SVG Export Plug-In . SVG Version: 6.00 Build 0)  -->
<!DOCTYPE svg PUBLIC "-//W3C//DTD SVG 1.1//EN" "http://www.w3.org/Graphics/SVG/1.1/DTD/svg11.dtd">
<svg version="1.1" id="Layer_1" xmlns="http://www.w3.org/2000/svg" xmlns:xlink="http://www.w3.org/1999/xlink" x="0px" y="0px"
	 width="120px" height="46px" viewBox="0 0 120 46" enable-background="new 0 0 120 46" xml:space="preserve">
<g>
	<path d="M0.593,4.187c0-0.725,0.245-1.344,0.736-1.856c0.49-0.512,1.098-0.768,1.824-0.768c0.725,0,1.344,0.256,1.855,0.768
		c0.513,0.512,0.769,1.131,0.769,1.856c0,0.726-0.256,1.334-0.769,1.824C4.497,6.502,3.878,6.747,3.153,6.747
		c-0.727,0-1.334-0.245-1.824-0.736C0.838,5.521,0.593,4.913,0.593,4.187z M1.681,44.251v-30.72h3.009v30.72H1.681z"/>
	<path d="M29.194,44.955c-2.556,0-4.951-0.502-7.188-1.504c-2.235-1.002-4.185-2.442-5.846-4.32c-1.662-1.877-2.961-4.17-3.897-6.88
		c-0.938-2.709-1.405-5.771-1.405-9.184c0-3.541,0.489-6.72,1.469-9.536c0.98-2.816,2.321-5.194,4.025-7.136
		c1.704-1.941,3.694-3.424,5.974-4.448c2.278-1.024,4.738-1.536,7.379-1.536c2.599,0,5.017,0.502,7.252,1.504
		c2.236,1.003,4.163,2.454,5.782,4.352c1.618,1.899,2.885,4.203,3.801,6.912c0.916,2.71,1.374,5.75,1.374,9.12
		c0,3.799-0.521,7.115-1.565,9.952c-1.044,2.838-2.439,5.194-4.186,7.071c-1.746,1.879-3.737,3.287-5.973,4.225
		C33.954,44.485,31.622,44.955,29.194,44.955z M29.29,42.395c2.518,0,4.736-0.543,6.656-1.631c1.92-1.089,3.541-2.55,4.864-4.385
		c1.321-1.834,2.313-3.945,2.976-6.336c0.661-2.389,0.992-4.906,0.992-7.552c0-2.261-0.311-4.554-0.928-6.88
		c-0.619-2.325-1.559-4.426-2.816-6.304c-1.259-1.877-2.848-3.402-4.768-4.576c-1.92-1.173-4.203-1.76-6.849-1.76
		s-4.938,0.576-6.88,1.728c-1.941,1.152-3.542,2.667-4.8,4.544c-1.259,1.878-2.198,4.022-2.816,6.432
		c-0.618,2.411-0.928,4.854-0.928,7.328c0,2.39,0.33,4.747,0.992,7.072c0.661,2.325,1.642,4.405,2.944,6.239
		c1.301,1.836,2.9,3.308,4.8,4.416C24.628,41.841,26.815,42.395,29.29,42.395z"/>
	<path d="M51.837,39.516c1.193,0.854,2.581,1.535,4.159,2.047c1.578,0.513,3.265,0.769,5.057,0.769c3.2,0,5.706-0.821,7.52-2.464
		s2.721-3.809,2.721-6.496c0-2.432-0.673-4.416-2.017-5.952s-3.531-2.922-6.56-4.16c-3.328-1.194-5.975-2.73-7.937-4.608
		c-1.963-1.877-2.943-4.309-2.943-7.296c0-1.578,0.309-3.04,0.928-4.384c0.618-1.344,1.472-2.496,2.56-3.456s2.39-1.706,3.904-2.24
		c1.514-0.533,3.168-0.8,4.96-0.8c2.005,0,3.722,0.214,5.152,0.64c1.429,0.427,2.506,0.875,3.231,1.344l-1.151,2.56
		c-0.599-0.426-1.536-0.864-2.816-1.312c-1.28-0.448-2.816-0.672-4.608-0.672c-1.707,0-3.146,0.246-4.319,0.736
		c-1.174,0.491-2.112,1.12-2.816,1.888c-0.704,0.768-1.216,1.611-1.536,2.528c-0.319,0.918-0.479,1.803-0.479,2.656
		c0,2.39,0.706,4.299,2.119,5.728c1.412,1.43,3.638,2.742,6.678,3.936c1.755,0.726,3.296,1.494,4.623,2.304
		c1.327,0.811,2.439,1.707,3.339,2.688s1.573,2.091,2.023,3.328c0.448,1.237,0.674,2.646,0.674,4.224
		c0,1.579-0.279,3.083-0.835,4.512c-0.557,1.431-1.401,2.688-2.535,3.776s-2.546,1.952-4.236,2.593
		c-1.689,0.64-3.647,0.959-5.872,0.959c-1.84,0-3.713-0.267-5.617-0.8c-1.903-0.532-3.41-1.205-4.521-2.016L51.837,39.516z"/>
	<path d="M106.716,2.011c1.412,0,2.781,0.224,4.108,0.671c1.326,0.448,2.481,1.087,3.466,1.917c0.984,0.831,1.775,1.864,2.374,3.1
		c0.599,1.236,0.899,2.641,0.899,4.217c0,0.895-0.119,1.8-0.355,2.716c-0.237,0.916-0.635,1.811-1.195,2.684
		c-0.56,0.874-1.302,1.705-2.228,2.493s-2.077,1.502-3.454,2.14v0.256c2.858,1.193,5.013,2.716,6.464,4.568
		c1.45,1.854,2.176,3.996,2.176,6.424c0,1.746-0.342,3.345-1.023,4.793c-0.684,1.447-1.611,2.684-2.784,3.705
		c-1.174,1.023-2.539,1.822-4.096,2.397c-1.559,0.574-3.19,0.862-4.896,0.862c-1.878,0-3.595-0.277-5.152-0.831
		s-2.891-1.331-4-2.332s-1.983-2.173-2.624-3.515c-0.64-1.342-0.96-2.78-0.96-4.314c0-2.727,0.769-5.059,2.305-6.997
		s3.626-3.483,6.271-4.633v-0.256c-2.475-1.107-4.256-2.502-5.344-4.185s-1.632-3.441-1.632-5.273c0-1.533,0.299-2.96,0.897-4.281
		c0.6-1.32,1.424-2.449,2.472-3.387c1.048-0.937,2.289-1.661,3.723-2.173C103.56,2.267,105.09,2.011,106.716,2.011z M106.203,42.395
		c1.112,0,2.247-0.16,3.403-0.479c1.155-0.319,2.203-0.832,3.146-1.536s1.712-1.6,2.312-2.688c0.599-1.088,0.898-2.422,0.898-4
		c0-1.45-0.247-2.73-0.739-3.84c-0.491-1.109-1.188-2.07-2.087-2.881c-0.898-0.81-2.001-1.514-3.307-2.111s-2.772-1.152-4.398-1.665
		c-2.91,0.896-5.115,2.25-6.613,4.064s-2.247,3.894-2.247,6.24c0,2.774,0.877,4.95,2.632,6.528S103.291,42.395,106.203,42.395z
		 M106.555,4.443c-1.407,0-2.635,0.224-3.68,0.672c-1.046,0.448-1.92,1.024-2.624,1.728c-0.704,0.704-1.227,1.526-1.568,2.464
		c-0.342,0.939-0.512,1.878-0.512,2.816c0,2.518,0.811,4.47,2.432,5.856c1.621,1.387,3.798,2.422,6.528,3.104
		c2.176-0.81,3.957-1.93,5.344-3.36c1.387-1.429,2.08-3.296,2.08-5.6c0-0.938-0.149-1.866-0.447-2.784
		c-0.3-0.917-0.769-1.738-1.408-2.464c-0.641-0.725-1.462-1.312-2.464-1.76C109.232,4.667,108.005,4.443,106.555,4.443z"/>
</g>
<g>
</g>
<g>
</g>
<g>
</g>
<g>
</g>
<g>
</g>
<g>
</g>
<g>
</g>
<g>
</g>
<g>
</g>
<g>
</g>
<g>
</g>
<g>
</g>
<g>
</g>
<g>
</g>
<g>
</g>
</svg>
