<?xml version="1.0" encoding="utf-8"?>
<!-- Generator: Adobe Illustrator 18.0.0, SVG Export Plug-In . SVG Version: 6.00 Build 0)  -->
<!DOCTYPE svg PUBLIC "-//W3C//DTD SVG 1.1//EN" "http://www.w3.org/Graphics/SVG/1.1/DTD/svg11.dtd">
<svg version="1.1" id="Layer_1" xmlns="http://www.w3.org/2000/svg" xmlns:xlink="http://www.w3.org/1999/xlink" x="0px" y="0px"
	 width="44px" height="47px" viewBox="0 0 44 47" enable-background="new 0 0 44 47" xml:space="preserve">
<g>
	<g id="Mars_Icon">
		<g>
			<path fill="#888888" d="M23.168,10.949c0.354-0.42,0.804-0.767,1.348-1.043c0.545-0.275,1.06-0.426,1.546-0.452
				c0.013,0.131,0.019,0.262,0.019,0.393c0,0.984-0.348,1.904-1.044,2.756c-0.839,1.011-1.811,1.469-2.912,1.378
				c-0.014-0.119-0.02-0.243-0.02-0.374C22.105,12.662,22.459,11.775,23.168,10.949z"/>
			<path fill="#888888" d="M29.82,24.786c-0.288,0.683-0.629,1.313-1.022,1.89c-0.538,0.787-0.978,1.332-1.319,1.634
				c-0.525,0.498-1.089,0.754-1.693,0.767c-0.432,0-0.955-0.128-1.564-0.384c-0.611-0.256-1.172-0.384-1.684-0.384
				c-0.538,0-1.115,0.127-1.732,0.384c-0.617,0.256-1.116,0.391-1.496,0.403c-0.576,0.027-1.155-0.235-1.732-0.787
				c-0.367-0.328-0.827-0.892-1.377-1.692c-0.591-0.854-1.076-1.844-1.457-2.974c-0.407-1.22-0.61-2.401-0.61-3.542
				c0-1.312,0.275-2.441,0.827-3.386c0.433-0.76,1.01-1.361,1.732-1.801c0.721-0.439,1.502-0.666,2.342-0.679
				c0.458,0,1.063,0.144,1.81,0.432c0.749,0.29,1.227,0.434,1.437,0.434c0.157,0,0.689-0.17,1.594-0.512
				c0.852-0.315,1.575-0.446,2.166-0.393c1.6,0.13,2.801,0.78,3.602,1.948c-1.431,0.893-2.139,2.139-2.126,3.739
				c0.012,1.247,0.452,2.285,1.319,3.111c0.393,0.38,0.833,0.677,1.318,0.885C30.05,24.197,29.939,24.498,29.82,24.786z"/>
		</g>
		<path fill="#888888" d="M36.017,1.984c3.308,0,6,2.67,6,5.952v25.251c0,3.282-2.691,5.952-6,5.952h-8.325h-0.679l-0.477,0.483
			l-4.382,4.443l-4.384-4.444l-0.477-0.483h-0.679H7.984c-3.309,0-6-2.67-6-5.952V7.937c0-3.282,2.692-5.952,6-5.952H36.017
			 M36.017,0.361H7.984c-4.21,0-7.623,3.391-7.623,7.575v25.251c0,4.184,3.413,7.575,7.623,7.575h8.632l5.539,5.615l5.538-5.615
			h8.325c4.21,0,7.623-3.391,7.623-7.575V7.937C43.639,3.752,40.227,0.361,36.017,0.361L36.017,0.361z"/>
	</g>
</g>
</svg>
