<?xml version="1.0" encoding="utf-8"?>
<!-- Generator: Adobe Illustrator 16.0.4, SVG Export Plug-In . SVG Version: 6.00 Build 0)  -->
<!DOCTYPE svg PUBLIC "-//W3C//DTD SVG 1.1//EN" "http://www.w3.org/Graphics/SVG/1.1/DTD/svg11.dtd">
<svg version="1.1" id="Layer_2" xmlns="http://www.w3.org/2000/svg" xmlns:xlink="http://www.w3.org/1999/xlink" x="0px" y="0px"
	 width="112px" height="26px" viewBox="0 0 112 26" enable-background="new 0 0 112 26" xml:space="preserve">
<g>
	<path fill="#333333" d="M0.157,3.008c0-0.396,0.134-0.735,0.402-1.015c0.268-0.28,0.601-0.42,0.998-0.42
		c0.396,0,0.735,0.14,1.015,0.42c0.28,0.28,0.42,0.618,0.42,1.015c0,0.397-0.14,0.729-0.42,0.998
		c-0.28,0.269-0.619,0.403-1.015,0.403c-0.397,0-0.729-0.134-0.998-0.403C0.291,3.737,0.157,3.405,0.157,3.008z M0.752,24.918v-16.8
		h1.645v16.8H0.752z"/>
	<path fill="#333333" d="M6.946,1.608c0.677-0.116,1.423-0.221,2.24-0.315c0.816-0.093,1.715-0.14,2.695-0.14
		c1.4,0,2.607,0.169,3.623,0.508s1.849,0.822,2.502,1.452c0.56,0.56,0.998,1.225,1.312,1.995s0.473,1.657,0.473,2.66
		c0,1.213-0.216,2.275-0.647,3.185c-0.432,0.91-1.021,1.674-1.768,2.292c-0.747,0.618-1.633,1.08-2.66,1.382
		c-1.027,0.304-2.147,0.455-3.36,0.455c-1.05,0-1.972-0.081-2.765-0.245v10.08H6.946V1.608z M8.591,13.368
		c0.396,0.117,0.84,0.198,1.33,0.245c0.49,0.047,1.015,0.07,1.575,0.07c2.076,0,3.698-0.49,4.865-1.47
		c1.167-0.98,1.75-2.415,1.75-4.305c0-0.91-0.152-1.703-0.455-2.38c-0.303-0.676-0.735-1.23-1.295-1.663
		c-0.56-0.431-1.225-0.758-1.995-0.98c-0.77-0.221-1.622-0.333-2.555-0.333c-0.747,0-1.389,0.03-1.925,0.088
		C9.35,2.699,8.918,2.763,8.591,2.833V13.368z"/>
	<path fill="#333333" d="M22.7,0.103h1.645v10.955h0.07c0.537-1.027,1.271-1.837,2.205-2.433c0.933-0.595,2.053-0.893,3.36-0.893
		c0.396,0,0.916,0.076,1.558,0.228c0.642,0.152,1.266,0.473,1.873,0.962c0.606,0.49,1.131,1.19,1.575,2.1s0.665,2.124,0.665,3.64
		v10.255h-1.645V14.873c0-0.746-0.076-1.464-0.228-2.152c-0.152-0.688-0.402-1.295-0.752-1.82c-0.35-0.525-0.811-0.945-1.382-1.26
		c-0.572-0.315-1.277-0.473-2.118-0.473c-1.19,0-2.222,0.368-3.097,1.103s-1.488,1.627-1.838,2.677
		c-0.163,0.467-0.245,1.015-0.245,1.645v10.325H22.7V0.103z"/>
	<path fill="#333333" d="M46.657,7.733c1.12,0,2.146,0.205,3.08,0.613c0.933,0.408,1.732,0.992,2.397,1.75s1.184,1.668,1.558,2.73
		c0.373,1.062,0.56,2.246,0.56,3.552c0,1.563-0.234,2.911-0.7,4.043c-0.467,1.132-1.08,2.06-1.837,2.782
		c-0.759,0.724-1.599,1.254-2.52,1.593c-0.922,0.338-1.837,0.507-2.748,0.507c-1.05,0-2.036-0.198-2.958-0.595
		c-0.922-0.396-1.721-0.974-2.397-1.732c-0.677-0.758-1.208-1.668-1.592-2.73c-0.385-1.062-0.578-2.257-0.578-3.587
		c0-1.446,0.21-2.724,0.63-3.833s0.992-2.042,1.715-2.8c0.723-0.758,1.546-1.33,2.468-1.715C44.656,7.925,45.63,7.733,46.657,7.733z
		 M46.622,9.133c-1.05,0-1.954,0.222-2.712,0.665c-0.758,0.444-1.388,1.015-1.89,1.715c-0.502,0.7-0.87,1.493-1.103,2.38
		c-0.234,0.886-0.35,1.773-0.35,2.66c0,1.05,0.146,2.024,0.438,2.923c0.292,0.898,0.7,1.675,1.225,2.327
		c0.525,0.653,1.149,1.167,1.873,1.54c0.723,0.374,1.528,0.561,2.415,0.561c0.863,0,1.668-0.187,2.415-0.561
		c0.747-0.373,1.388-0.887,1.925-1.54c0.536-0.652,0.957-1.435,1.26-2.345s0.455-1.913,0.455-3.01c0-0.771-0.111-1.581-0.333-2.433
		c-0.222-0.852-0.566-1.639-1.032-2.363c-0.467-0.723-1.08-1.324-1.838-1.802C48.611,9.373,47.695,9.133,46.622,9.133z"/>
	<path fill="#333333" d="M57.59,12.143c0-0.793-0.012-1.493-0.033-2.1c-0.025-0.606-0.059-1.248-0.105-1.925h1.609v2.975h0.141
		c0.443-0.933,1.154-1.726,2.135-2.38c0.98-0.653,2.146-0.98,3.5-0.98c0.396,0,0.916,0.076,1.557,0.228
		c0.643,0.152,1.271,0.473,1.891,0.962c0.617,0.49,1.148,1.196,1.592,2.118c0.443,0.922,0.666,2.152,0.666,3.692v10.186h-1.645
		v-10.01c0-0.746-0.076-1.47-0.229-2.17c-0.152-0.7-0.402-1.312-0.752-1.837s-0.816-0.945-1.4-1.26s-1.295-0.473-2.135-0.473
		c-1.168,0-2.193,0.362-3.08,1.085c-0.887,0.724-1.494,1.645-1.82,2.765c-0.164,0.443-0.244,0.934-0.244,1.47v10.43H57.59V12.143z"
		/>
	<path fill="#333333" d="M75.422,16.308c0,1.377,0.17,2.538,0.508,3.482c0.338,0.945,0.793,1.722,1.365,2.328
		s1.236,1.044,1.994,1.312c0.76,0.269,1.559,0.402,2.398,0.402c1.119,0,2.035-0.105,2.748-0.315c0.711-0.21,1.301-0.42,1.768-0.63
		l0.42,1.295c-0.328,0.188-0.916,0.415-1.768,0.683c-0.854,0.269-1.979,0.402-3.379,0.402c-1.189,0-2.256-0.21-3.201-0.63
		s-1.75-1.003-2.416-1.75c-0.664-0.746-1.172-1.639-1.521-2.677s-0.525-2.176-0.525-3.413c0-1.399,0.186-2.653,0.561-3.762
		c0.373-1.108,0.887-2.059,1.539-2.853c0.652-0.793,1.43-1.4,2.328-1.82c0.898-0.42,1.873-0.63,2.922-0.63
		c1.354,0,2.443,0.28,3.273,0.84c0.828,0.56,1.475,1.231,1.941,2.013c0.467,0.782,0.781,1.604,0.945,2.467
		c0.164,0.864,0.246,1.61,0.246,2.24c0,0.233,0,0.42,0,0.56c0,0.141-0.014,0.304-0.035,0.49L75.422,16.308z M85.852,14.978
		c0-0.606-0.068-1.253-0.209-1.942c-0.141-0.688-0.396-1.324-0.77-1.908c-0.375-0.583-0.875-1.067-1.506-1.453
		c-0.629-0.385-1.436-0.577-2.414-0.577c-0.889,0-1.658,0.187-2.311,0.56c-0.654,0.373-1.203,0.846-1.645,1.417
		c-0.443,0.572-0.783,1.202-1.016,1.89c-0.234,0.688-0.385,1.36-0.455,2.012H85.852z"/>
	<path fill="#333333" d="M109.197,3.323c-1.539,0-2.928,0.269-4.164,0.805c-1.238,0.537-2.299,1.26-3.186,2.17
		c-0.887,0.91-1.594,1.966-2.117,3.167c-0.525,1.202-0.846,2.468-0.963,3.798h0.07c0.535-0.84,1.295-1.575,2.275-2.205
		c0.979-0.63,2.146-0.945,3.5-0.945c1.025,0,1.947,0.181,2.764,0.542c0.816,0.362,1.518,0.864,2.1,1.505
		c0.584,0.642,1.027,1.412,1.33,2.31s0.455,1.872,0.455,2.922c0,1.004-0.152,1.984-0.455,2.94c-0.303,0.957-0.746,1.803-1.33,2.537
		c-0.582,0.735-1.312,1.325-2.188,1.768c-0.875,0.443-1.871,0.665-2.992,0.665c-1.027,0-1.977-0.21-2.852-0.63
		s-1.645-1.032-2.311-1.837c-0.664-0.806-1.184-1.797-1.557-2.976c-0.375-1.178-0.561-2.537-0.561-4.077
		c0-1.89,0.262-3.669,0.787-5.338c0.525-1.668,1.301-3.126,2.328-4.375c1.025-1.248,2.297-2.251,3.814-3.01
		c1.516-0.758,3.266-1.184,5.25-1.277V3.323z M104.402,23.903c0.746,0,1.436-0.146,2.064-0.438c0.631-0.292,1.174-0.712,1.629-1.261
		c0.455-0.548,0.811-1.213,1.066-1.994c0.256-0.782,0.385-1.663,0.385-2.643c0-1.003-0.135-1.878-0.402-2.625
		s-0.643-1.371-1.119-1.873c-0.479-0.501-1.045-0.88-1.697-1.137c-0.654-0.257-1.365-0.385-2.137-0.385
		c-1.049,0-2.035,0.298-2.957,0.893c-0.922,0.595-1.65,1.382-2.188,2.362c-0.094,0.188-0.174,0.392-0.244,0.612
		c-0.07,0.223-0.105,0.462-0.105,0.718c0,1.167,0.129,2.229,0.385,3.186s0.625,1.773,1.104,2.449
		c0.477,0.678,1.066,1.202,1.768,1.575c0.699,0.374,1.504,0.561,2.414,0.561H104.402z"/>
</g>
</svg>
