<?xml version="1.0" encoding="iso-8859-1"?>
<!-- Generator: Adobe Illustrator 23.1.1, SVG Export Plug-In . SVG Version: 6.00 Build 0)  -->
<svg version="1.1" id="Layer_1" xmlns="http://www.w3.org/2000/svg" xmlns:xlink="http://www.w3.org/1999/xlink" x="0px" y="0px"
	 width="338px" height="338px" viewBox="0 0 338 338" style="enable-background:new 0 0 338 338;" xml:space="preserve">
<path style="fill:none;" d="M0,0h338v338H0V0z"/>
<path style="fill:#C5D1FF;" d="M331.2,301l-61.3-61.3c43.4-58.5,38.6-141.6-14.2-194.4C227.5,17.1,190,1.5,150.2,1.5
	S72.9,17.1,44.6,45.3C16.4,73.4,1,110.8,1,150.7S16.4,228,44.6,256.2c29,29,67.3,43.6,105.5,43.6c31.8,0,63.7-10,90.1-30.2
	l61.1,61.1c7.8,7.8,20.4,7.8,28.2,0l1.4-1.4C339,321.4,339,308.8,331.2,301L331.2,301z M73.1,227.9c-20.6-20.6-32-48.1-32-77.1
	c0-29.2,11.4-56.5,32-77.1s48.1-32,77.1-32c29.2,0,56.5,11.4,77.1,32c42.4,42.4,42.4,111.7,0,154.4
	C184.8,270.4,115.5,270.4,73.1,227.9L73.1,227.9z"/>
</svg>
