<svg xmlns="http://www.w3.org/2000/svg" width="509" height="415"><clipPath id="mask"><path fill-rule="evenodd" d="M29.466 100.134c.468-24.592 1.92-42.554 16.696-56.543 14.31-13.549 35.824-14.225 54.259-14.225h86.447c18.435 0 39.799.676 54.11 14.225 13.722 12.991 16.102 29.41 16.725 51.383.177 2.045.119 4.114.119 6.205l.15 125.96h-.103c-.467 24.592-1.47 42.553-16.246 56.542-14.311 13.549-36.423 14.675-54.858 14.675h-86.091c-15.216 0-32.881-.552-46.581-8.467-1.283-.741-13.71-8.035-19.432-23.125-3.062-8.074-5.041-19.669-5.041-35.725 0-14.033-.154-130.905-.154-130.905z"/></clipPath></svg>