<svg xmlns="http://www.w3.org/2000/svg" width="416" height="340"><clipPath id="mask"><path fill-rule="evenodd" d="M210.88 185.202h-.083c-.382 20.062-1.2 34.714-13.254 46.126-11.674 11.053-29.714 11.971-44.753 11.971H82.557c-12.413 0-26.824-.45-38-6.907-1.046-.605-11.184-6.555-15.853-18.865-2.497-6.586-4.112-16.045-4.112-29.143 0-11.448-.125-106.789-.125-106.789.381-20.061 1.566-34.714 13.62-46.126 11.674-11.053 29.225-11.605 44.265-11.605h70.522c15.039 0 32.468.552 44.143 11.605 11.194 10.598 13.014 23.992 13.522 41.917.145 1.668.341 107.816.341 107.816z"/></clipPath></svg>