<svg xmlns="http://www.w3.org/2000/svg" width="162" height="191"><clipPath id="mask"><path fill-rule="evenodd" d="M.283 50.185c.329-17.358 1.353-30.037 11.773-39.911C22.147.71 37.317.233 50.317.233h60.959c13 0 28.065.477 38.156 10.041 9.676 9.17 11.355 20.76 11.794 36.269.125 1.443.084 2.904.084 4.38l.106 88.91h-.073c-.329 17.358-1.037 30.037-11.456 39.911-10.091 9.564-25.684 10.358-38.684 10.358H50.495c-10.729 0-23.186-.389-32.846-5.976-.905-.523-9.668-5.672-13.703-16.323-2.159-5.699-3.555-13.884-3.555-25.217 0-9.905-.108-92.401-.108-92.401z"/></clipPath></svg>